<?xml version="1.0" standalone="no"?>
<!DOCTYPE svg PUBLIC "-//W3C//DTD SVG 1.1//EN" "http://www.w3.org/Graphics/SVG/1.1/DTD/svg11.dtd" >
<!--
2013-9-30: Created.
-->
<svg>
<metadata>
Created by iconfont
</metadata>
<defs>

<font id="iconfont" horiz-adv-x="1024" >
  <font-face
    font-family="iconfont"
    font-weight="500"
    font-stretch="normal"
    units-per-em="1024"
    ascent="896"
    descent="-128"
  />
    <missing-glyph />
    
    <glyph glyph-name="zhinenghuaxuanpinicon1" unicode="&#58882;" d="M932.300844-113.233556l-30.557175-30.537504c-8.420108-8.442276-22.096133-8.442276-30.535685 0l-66.054052 66.042135c-57.269631-30.836309-129.946792-22.768563-178.305108 25.578562-59.022627 59.043744-59.022627 154.768923 0 213.812667 59.065607 59.032488 154.778334 59.032488 213.820404 0 48.338872-48.349171 56.415136-121.036657 25.557096-178.296779l66.074519-66.053392C940.720953-91.128095 940.720953-104.804582 932.300844-113.233556zM794.853934 115.84684c-33.741834 33.731242-88.424442 33.731242-122.189813 0-33.720344-33.743522-33.720344-88.438215 0-122.17969 33.765371-33.731242 88.449002-33.731242 122.189813 0C828.574278 27.408625 828.574278 82.103318 794.853934 115.84684zM279.70458 180.585283l277.542246 0c-18.782532-26.63666-30.599132-56.607252-35.492783-87.529519L279.70458 93.055764c-12.075508 0-21.882253 9.79918-21.882253 21.883403l0 43.764759C257.822327 170.787126 267.629072 180.585283 279.70458 180.585283zM673.583088 443.172817 432.879328 443.172817l0 87.529519 240.70376 0c12.072438 0 21.882253-9.797134 21.882253-21.88238l0-43.764759C695.465341 452.971997 685.655525 443.172817 673.583088 443.172817zM695.465341 289.997182c0-12.084223-9.809815-21.88238-21.882253-21.88238L279.70458 268.114802c-12.075508 0-21.882253 9.798157-21.882253 21.88238l0 43.764759c0 12.085246 9.806745 21.88238 21.882253 21.88238l393.878507 0c12.072438 0 21.882253-9.797134 21.882253-21.88238L695.465341 289.997182zM782.994353 661.996614 345.351339 661.996614l0-175.059038L170.294339 486.937576l0-525.176091 373.27851 0c9.507927-17.801435 21.68884-34.543747 36.691124-49.544393 15.70737-15.696494 33.291561-28.314883 52.011669-37.985126L126.529832-125.768033c-24.172506 0-43.764506 19.596314-43.764506 43.765783L82.765326 527.871871 298.955805 749.527157l527.803053 0c24.167389 0 43.764506-19.596314 43.764506-43.764759l0-492.289076c-25.664548 23.826662-55.730516 40.077787-87.527989 48.657186L782.995376 661.996614z"  horiz-adv-x="1024" />

    
    <glyph glyph-name="genzongdingwei" unicode="&#58905;" d="M512 530.285714c-80.786286 0-146.285714-65.499429-146.285714-146.285714s65.499429-146.285714 146.285714-146.285714 146.285714 65.499429 146.285714 146.285714S592.786286 530.285714 512 530.285714zM512 310.857143c-40.321829 0-73.142857 32.821029-73.142857 73.142857s32.821029 73.142857 73.142857 73.142857 73.142857-32.821029 73.142857-73.142857S552.321829 310.857143 512 310.857143zM1024 420.571429l-75.000686 0C931.392 633.678629 761.678629 803.392 548.571429 820.999314L548.571429 896l-73.142857 0 0-75.000686C262.357943 803.392 92.642743 633.678629 75.000686 420.571429L0 420.571429l0-73.142857 75.000686 0C92.642743 134.321371 262.357943-35.392 475.428571-52.999314L475.428571-128l73.142857 0 0 75.000686C761.678629-35.392 931.392 134.321371 948.999314 347.428571L1024 347.428571 1024 420.571429zM548.571429 20.143543 548.571429 91.428571l-73.142857 0 0-71.285029C302.928457 37.357714 165.357714 174.928457 148.143543 347.428571L219.428571 347.428571l0 73.142857L148.143543 420.571429C165.357714 593.071543 302.928457 730.642286 475.428571 747.856457L475.428571 676.571429l73.142857 0L548.571429 747.856457C721.071543 730.642286 858.642286 593.071543 875.856457 420.571429L804.571429 420.571429l0-73.142857 71.285029 0C858.642286 174.928457 721.071543 37.357714 548.571429 20.143543z"  horiz-adv-x="1024" />

    
    <glyph glyph-name="icon" unicode="&#58884;" d="M933.4461 252.137787c-18.783809 108.945271-97.673553 180.322925-97.673553 180.322925 11.268648 98.920964-30.055526 116.461455-30.055526 116.461455C797.015847 854.972585 533.382495 849.61353 527.847431 849.468221c-5.542226 0.145309-269.211395 5.504364-277.872658-300.5481 0 0-41.325198-17.539468-30.054503-116.461455 0 0-78.894861-71.377654-97.676623-180.322925 0 0-10.033517-184.082552 90.159416-22.543436 0 0 22.544459-61.344137 63.86761-116.455315 0 0-73.897034-25.061792-67.621097-90.164532 0 0-2.517333-72.618924 157.784606-67.62519 0 0 112.701828 8.756431 146.515958 56.350402l14.766308 0 0.26299 0 14.765285 0c33.809013-47.596018 146.513912-56.350402 146.513912-56.350402 160.26203-4.993734 157.781536 67.62519 157.781536 67.62519 6.238075 65.10274-67.620074 90.164532-67.620074 90.164532 41.324174 55.109132 63.86147 116.455315 63.86147 116.455315C943.437661 68.055235 933.4461 252.137787 933.4461 252.137787L933.4461 252.137787z"  horiz-adv-x="1024" />

    
    <glyph glyph-name="jisuanqi" unicode="&#58915;" d="M154.432 853.088c46.4 10.624 134.016 3.648 193.472 3.648 59.52 0 122.88 0 186.368 0 113.472 0 300.928 22.272 361.984-14.4 53.12-31.872 46.592-108.48 46.592-193.472 0-138.56 0-328.64 0-480.192 0-111.808 17.792-219.008-46.592-254.464-36.544-20.16-133.376-10.688-189.888-10.688-131.584 0-264.704 0-394.24 0-81.792 0-168.704-8.384-200.704 21.376-35.456 33.024-28.672 126.784-28.672 200.768 0 124.8 0 327.232 0 451.52 0 100.096-28.8 253.12 71.68 275.904zM158.016 785.12c-18.112-26.304-10.816-142.144-10.816-197.184 0-208.832-5.696-434.176 7.232-612.736 222.272-14.4 484.864-7.232 713.152-3.584 18.88 59.648 10.752 129.344 10.752 197.056 0 205.056 5.76 426.944-7.168 616.384-221.184 11.904-492.096 12.032-713.152 0.064zM799.488 720.544c5.952-45.632 5.952-115.648 0-161.216-175.68-14.4-391.744-7.232-573.376-3.648-2.112 48-14.144 135.552 7.168 171.968 75.072 6.4 194.304 3.648 297.408 3.648 98.368 0 194.88 8.384 268.8-10.752zM441.152 487.584c45.504-2.24 100.16 4.608 139.648-3.584 0-33.408 0-66.88 0-100.288-39.488-8.192-94.144-1.344-139.648-3.648 0 35.84 0 71.744 0 107.52zM376.576 480.416c0-33.408 0-66.816 0-100.288-44.16 0-88.384 0-132.544 0 0 33.472 0 66.88 0 100.288 44.16 0 88.32 0 132.544 0zM781.568 480.416c0-33.408 0-66.816 0-100.288-44.16 0-88.448 0-132.544 0 0 33.472 0 66.88 0 100.288 44.096 0 88.32 0 132.544 0zM376.576 311.968c0-33.408 0-66.88 0-100.352-44.16 0-88.384 0-132.544 0 0 33.472 0 66.944 0 100.352 44.16 0 88.32 0 132.544 0zM444.672 311.968c45.376 0 90.816 0 136.128 0 0-33.408 0-66.88 0-100.352-45.312 0-90.688 0-136.128 0 0 33.536 0 66.944 0 100.352zM781.568 311.968c0-89.536 0-179.2 0-268.736-44.16 0-88.448 0-132.544 0 0 89.536 0 179.2 0 268.736 44.096 0 88.32 0 132.544 0zM376.576 143.52c0-33.344 0-66.816 0-100.224-44.16 0-88.384 0-132.544 0 0 33.408 0 66.88 0 100.224 44.16 0 88.32 0 132.544 0zM444.672 143.52c44.352-2.176 97.728 4.672 136.128-3.584 0-32.192 0-64.512 0-96.704-45.312 0-90.688 0-136.128 0 0 33.472 0 66.88 0 100.288z"  horiz-adv-x="1024" />

    
    <glyph glyph-name="duizhangdan" unicode="&#58923;" d="M677.9904 715.112727C677.9904 734.382545 662.351127 750.021818 643.081309 750.021818L163.616582 750.021818C144.346764 750.021818 128.707491 734.382545 128.707491 715.112727 128.707491 695.842909 144.346764 680.203636 163.616582 680.203636L643.081309 680.203636C662.351127 680.203636 677.9904 695.842909 677.9904 715.112727ZM163.625891 627.977309C144.356073 627.977309 128.7168 612.338036 128.7168 593.068218 128.7168 573.7984 144.356073 558.159127 163.625891 558.159127L466.683345 558.159127C485.976436 558.159127 501.592436 573.7984 501.592436 593.068218 501.592436 612.338036 485.976436 627.977309 466.683345 627.977309L163.625891 627.977309ZM805.308509 501.704145 694.646691 391.042327 583.984873 501.704145C570.347055 515.341964 548.261236 515.341964 534.623418 501.704145 520.9856 488.066327 520.9856 465.980509 534.623418 452.342691L624.083782 362.882327 576.747055 362.882327C557.477236 362.882327 541.837964 347.243055 541.837964 327.973236 541.837964 308.703418 557.477236 293.064145 576.747055 293.064145L659.7376 293.064145 659.7376 264.997236 576.747055 264.997236C557.477236 264.997236 541.837964 249.357964 541.837964 230.088145 541.837964 210.818327 557.477236 195.179055 576.747055 195.179055L659.7376 195.179055 659.7376 134.437236C659.7376 115.167418 675.376873 99.528145 694.646691 99.528145 713.916509 99.528145 729.555782 115.167418 729.555782 134.437236L729.555782 195.179055 812.5696 195.179055C831.839418 195.179055 847.478691 210.818327 847.478691 230.088145 847.478691 249.357964 831.839418 264.997236 812.5696 264.997236L729.555782 264.997236 729.555782 293.064145 812.5696 293.064145C831.839418 293.064145 847.478691 308.703418 847.478691 327.973236 847.478691 347.243055 831.839418 362.882327 812.5696 362.882327L765.2096 362.882327 854.669964 452.342691C868.307782 465.980509 868.307782 488.066327 854.669964 501.704145 841.032145 515.341964 818.946327 515.341964 805.308509 501.704145ZM1023.627636 800.954182C1023.627636 853.364364 980.968727 896 928.512 896L95.115636 895.906909C42.658909 895.906909 0 853.271273 0 800.861091L0-93.090909C0-112.360727 15.616-128 34.909091-128L39.656727-128C48.500364-128 57.018182-124.625455 63.464727-118.621091L155.904-32.325818 248.32-118.621091C254.766545-124.625455 263.284364-128 272.128-128L282.181818-128C291.025455-128 299.543273-124.625455 305.989818-118.621091L398.429091-32.302545 490.845091-118.621091C497.314909-124.625455 505.832727-128 514.676364-128L524.730182-128C533.550545-128 542.091636-124.625455 548.538182-118.621091L640.977455-32.325818 733.370182-118.621091C740.096-124.881455 748.660364-128 757.201455-128 766.510545-128 775.842909-124.276364 782.708364-116.898909 795.880727-102.818909 795.112727-80.733091 781.009455-67.560727L664.785455 40.983273C651.380364 53.480727 630.551273 53.480727 617.146182 40.983273L519.703273-50.013091 422.237091 40.983273C408.832 53.480727 388.002909 53.480727 374.597818 40.983273L277.154909-50.013091 179.712 40.983273C166.306909 53.480727 145.501091 53.480727 132.072727 40.983273L69.818182-17.152 69.818182 800.861091C69.818182 814.778182 81.152 826.088727 95.115636 826.088727L928.512 826.181818C942.475636 826.181818 953.809455 814.871273 953.809455 800.954182L953.809455-10.984727 954.181818-83.758545C954.274909-102.958545 969.867636-118.481455 989.090909-118.481455L989.207273-118.481455C1008.546909-118.388364 1024.093091-102.679273 1024-83.386182L1023.627636 800.954182Z"  horiz-adv-x="1025" />

    
    <glyph glyph-name="weibo" unicode="&#58941;" d="M905.21 689.1c-87.592 84.119-216.174 72.357-216.174 72.357-15.81-0.319-28.629-13.41-28.629-29.36v-14.213c0-15.897 12.76-28.042 29.035-27.763 0 0 123.395 13.097 175.956-63.519 52.553-76.616 29.847-172.755 29.847-172.755-2.412-15.693 8.479-28.418 24.542-28.418h12.26c15.967 0 30.73 12.684 32.45 28.524 0.002-0 28.304 151.031-59.287 235.147v0zM803.346 459.404h17.373c10.605 0 20.884 8.31 22.597 18.989 0 0 20.475 79.684-27.297 123.359-47.777 43.677-110.211 27.745-110.211 27.745-10.471-1.598-18.97-11.529-18.97-22.085v-7.495c0-10.605 8.483-18.558 19.437-18.239 0 0 52.404 7.129 77.892-23.602 25.484-30.738 5.532-80.445 5.532-80.445-3.063-10.069 3.185-18.227 13.648-18.227v0zM395.21 380.82c-86.012-16.718-144.266-89.281-130.117-162.080 14.153-72.793 95.348-118.253 181.354-101.536 86.010 16.723 144.277 89.289 130.124 162.087-14.149 72.792-95.343 118.252-181.361 101.529v0zM388.155 189.372c-26.471-12.341-55.552-6.008-64.953 14.153-9.402 20.169 4.434 46.518 30.905 58.86 26.472 12.348 55.555 6.008 64.961-14.153 9.389-20.168-4.434-46.518-30.912-58.86v0zM448.857 250.631c-14.594 0-26.432 12.024-26.432 26.855 0 14.83 11.836 26.858 26.432 26.858 14.615 0 26.453-12.029 26.453-26.858-0.001-14.833-11.841-26.855-26.453-26.855v0zM715.68 410.87c0 8.087 76.927 80.879 0 126.177-76.929 45.293-217.655-23.571-213.438-16.175 60.525 105.731-25.965 139.111-70.062 139.111-105.133 0-379.945-234.182-379.945-382.497 0-148.316 183.496-268.555 409.844-268.555 226.353 0 408.097 120.241 408.097 268.555 0.001 125.297-154.496 125.297-154.496 133.384v0zM473.15 91.2c-144.601-20.324-272.714 40.593-286.132 136.056-13.418 95.47 92.936 189.337 237.544 209.661 144.626 20.324 272.721-40.59 286.144-136.061 13.422-95.464-92.932-189.33-237.556-209.656v0z"  horiz-adv-x="1024" />

    
    <glyph glyph-name="tuite" unicode="&#58886;" d="M1014.782058 620.586346l-86.617753-17.669428c51.732222 39.84652 62.428841 120.68771 62.428841 120.68771l-104.298438-63.210647C849.698209 740.627327 768.836553 796.426167 674.894997 796.426167c-128.285758 0-232.287437-104.000656-232.287437-232.287437 0-18.283412 2.181689-36.048007 6.17463-53.114708C319.030034 560.712701 116.66407 638.511601 85.890182 649.899976c-15.899108-56.613392-12.359492-118.977765 14.624069-176.377056 11.066033-23.539112 25.297153-44.575218 41.935088-62.86477-38.610366 1.552356-67.494207 2.675946-77.393671 2.962471 2.669806-51.792597 23.211654-102.910834 61.940724-143.273101 14.134929-14.731516 29.826306-27.058262 46.535873-37.072337-39.235606-10.130731-71.65497-18.524912-80.122829-20.816095 10.584056-29.468149 31.375591-55.42124 60.808948-71.987544 22.036899-12.401448 58.543348-21.745257 98.584296-26.166963-54.127781-17.073864-111.688755-26.423813-171.46007-26.423813-23.235191 0-46.130643 1.424442-68.633147 4.130064 92.15998-64.133669 204.1414-101.766778 324.930417-101.766778 300.520471 0 546.568307 232.790904 567.926754 527.873526C977.751676 551.827333 1014.782058 620.586346 1014.782058 620.586346z"  horiz-adv-x="1024" />

    
    <glyph glyph-name="weixin" unicode="&#58969;" d="M683.264 571.712c10.24 0 20.224-0.448 30.4-1.408C690.688 716.224 547.584 828.672 374.4 828.672c-189.184 0-342.528-134.208-342.528-299.712 0-92.544 48-175.296 123.264-230.336-9.6-48.128-21.568-111.424-19.84-109.312 2.624 0.96 68.8 37.696 110.4 61.76 39.744-14.016 83.136-21.888 128.704-21.888 4.8 0 9.472 0.128 14.272 0.256-5.312 20.672-8.064 41.856-8.064 64-0.064 153.664 135.424 278.272 302.656 278.272z m-174.336 97.856c23.68 0 42.816-19.136 42.816-42.752 0-23.68-19.2-42.88-42.816-42.88-23.616 0-42.816 19.264-42.816 42.88 0 23.616 19.2 42.752 42.816 42.752z m-262.976-85.632c-23.68 0-42.752 19.264-42.752 42.88 0 23.616 19.136 42.752 42.752 42.752s42.816-19.136 42.816-42.752c0-23.68-19.2-42.88-42.816-42.88z m746.176-281.28c0 138.496-131.392 250.752-293.504 250.752-162.176 0-293.632-112.32-293.632-250.752 0-138.496 131.456-250.88 293.632-250.88 44.096 0 85.888 8.384 123.52 23.296C860.864 54.4 903.04 32.64 905.152 32c1.472-1.6-6.848 38.912-15.872 79.808 62.848 46.208 102.848 114.432 102.848 190.848z m-403.648 55.04c-23.68 0-42.88 19.136-42.88 42.752 0 23.616 19.2 42.88 42.88 42.88 23.616 0 42.752-19.264 42.752-42.88 0-23.616-19.136-42.752-42.752-42.752z m214.016 0c-23.616 0-42.88 19.136-42.88 42.752 0 23.616 19.264 42.88 42.88 42.88s42.88-19.264 42.88-42.88c0-23.616-19.264-42.752-42.88-42.752z"  horiz-adv-x="1024" />

    
    <glyph glyph-name="xianshichazhaoliebiao" unicode="&#58961;" d="M784.128 150.976a256 256 0 0 1 51.264 156.224c0 145.472-117.504 264.32-261.888 264.32S311.616 452.672 311.616 307.2c0-146.624 117.504-265.408 261.888-265.408 61.888 0 117.504 21.504 162.496 57.856l165.632-168.064 49.984 49.152-167.488 170.24z m-210.624-48.192c-111.232 0-201.856 92.032-201.856 204.416 0 112.32 90.624 204.416 201.856 204.416s201.856-92.032 201.856-204.416c0-112.32-90.624-204.416-201.856-204.416zM64 766.016h832v-128H64zM62.016 572.8h192v-128h-192zM62.016 384h96v-128h-96z"  horiz-adv-x="1024" />

    
    <glyph glyph-name="xinwenzixun-xianxing" unicode="&#59559;" d="M832 704v-640H192V704h640m32 64H160c-17.6 0-32-14.4-32-32v-704c0-17.6 14.4-32 32-32h704c17.6 0 32 14.4 32 32V736c0 17.6-14.4 32-32 32zM768 256H576v-64h192v64zM512 384H256v-192h256V384z m256 0H576v-64h192v64z m0 192H256v-128h512V576z"  horiz-adv-x="1024" />

    
    <glyph glyph-name="haiguan-xianxing" unicode="&#59564;" d="M512 768c212 0 384-172 384-384s-172-384-384-384-384 172-384 384 172 384 384 384m0 64C264.8 832 64 631.2 64 384s200.8-448 448-448 448 200.8 448 448S759.2 832 512 832z m244.8-464.8s-12 32.8-12 77.6c0 0-2.4 8-4.8 0.8 0 0-1.6-41.6 0-44.8 0 0-11.2 0-14.4 48.8 0 0-0.8 8-2.4 0 0 0 0-42.4-7.2-16.8 0 0-6.4 23.2-7.2 37.6 0 0-4-2.4-6.4-13.6 0 0-7.2-0.8-9.6 29.6 0 0-2.4 7.2-4.8 0 0 0-3.2-11.2-1.6-16.8 0 0-10.4 1.6-9.6 32.8 0 0-6.4-3.2-4.8-14.4 0 0 0-7.2-4.8 0 0 0-13.6 12-28 7.2 0 0-4 0.8-14.4-10.4L589.6 448s11.2-22.4 35.2-12.8c0 0 5.6 0.8 12 6.4 0 0 0.8 16 10.4 18.4 0 0 12.8 2.4 23.2-9.6 0 0 11.2-14.4-0.8-27.2 0 0-13.6-37.6-83.2-13.6 0 0 8.8-33.6-34.4-45.6l-2.4-4 61.6-52s12-11.2 26.4-0.8c0 0 41.6 26.4 77.6 3.2 0 0 53.6-35.2 31.2-107.2 0 0-27.2-88-112-73.6 0 0-73.6 31.2-56 96.8l6.4 20s8 12-8 22.4l-61.6 55.2s-12-32.8-62.4-33.6c0 0 4-61.6-64-51.2L291.2 129.6l-4 3.2 87.2 120s-16 64.8 46.4 64l4 4s-15.2 42.4 28 60l-192 166.4s-11.2 8.8 0.8 27.2c0 0 16 8.8 29.6-4l192-153.6 4.8 4.8s3.2 38.4 45.6 42.4c0 0 3.2 12.8-6.4 28.8 0 0-12.8 22.4 0 40.8 0 0 10.4 16.8 32.8 8 0 0 21.6-9.6 10.4-23.2 0 0-8.8-8-13.6-8.8 0 0-3.2-34.4 18.4-32l36.8 40.8s10.4 12-4.8 24c0 0-13.6 7.2 3.2 12 0 0 6.4-0.8 7.2 4.8 0 0 1.6 3.2-12 3.2 0 0-21.6-2.4-20 5.6l19.2 3.2s7.2 3.2-2.4 3.2l-21.6 0.8s-11.2-0.8-16 6.4l24 0.8s6.4 0 4.8 5.6c0 0 0 2.4-8 2.4L536 592s-3.2 4.8 10.4 5.6l24.8 0.8s6.4 0.8-0.8 4.8c0 0 1.6 0.8-9.6 2.4l-46.4 2.4s-11.2 6.4-0.8 8l50.4 1.6s6.4 4 0 7.2H478.4s-4.8-1.6-9.6 6.4c0 0-1.6 4.8 7.2 6.4l114.4 2.4s37.6-0.8 44-36.8c0 0 2.4-11.2 1.6-27.2 0 0 4-11.2 12-8.8 0 0 8-3.2 17.6 9.6 0 0 2.4 8 3.2 13.6 0 0 0.8 16.8 25.6 15.2 0 0 17.6-7.2 25.6-23.2 0 0 8.8-9.6-3.2-20 0 0-7.2-10.4-21.6-10.4 0 0-15.2-4-14.4-18.4 0 0 0.8-21.6 24.8-18.4 0 0 17.6 12 31.2 4.8 0 0 21.6-8.8 21.6-46.4L768 356.8s-5.6-7.2-11.2 10.4z"  horiz-adv-x="1024" />

    
    <glyph glyph-name="jikediancanicon13" unicode="&#58966;" d="M681.472 820.928c6.143 0 12.288-2.336 16.96-7.041 9.376-9.376 9.376-24.576 0-33.952l-376.224-376.224 401.568-401.568c9.376-9.376 9.376-24.576 0-33.952s-24.576-9.376-33.952 0l-435.488 435.521 410.176 410.208c4.672 4.672 10.816 7.007 16.96 7.008z"  horiz-adv-x="1024" />

    
    <glyph glyph-name="qiache-kongxin" unicode="&#59703;" d="M977.066667 277.333333l-125.866667 189.866667c-2.133333 4.266667-6.4 6.4-14.933333 6.4h-125.866667v168.533333c0 17.066667-14.933333 34.133333-34.133333 34.133334H76.8c-19.2 0-34.133333-14.933333-34.133333-34.133334v-467.2c0-17.066667 14.933333-34.133333 34.133333-34.133333h34.133333c0-74.666667 59.733333-132.266667 132.266667-132.266667s132.266667 59.733333 132.266667 132.266667h268.8c0-74.666667 59.733333-132.266667 132.266666-132.266667 74.666667 0 132.266667 59.733333 132.266667 132.266667h34.133333c17.066667 0 34.133333 14.933333 34.133334 34.133333v93.866667c2.133333 4.266667 2.133333 6.4 0 8.533333z m-733.866667-204.8c-36.266667 0-66.133333 29.866667-66.133333 66.133334 0 36.266667 29.866667 66.133333 66.133333 66.133333s66.133333-29.866667 66.133333-66.133333-29.866667-66.133333-66.133333-66.133334z m401.066667 136.533334H358.4c-21.333333 38.4-66.133333 66.133333-115.2 66.133333S149.333333 247.466667 125.866667 209.066667h-17.066667V610.133333h535.466667v-401.066666z m134.4-136.533334c-36.266667 0-66.133333 29.866667-66.133334 66.133334 0 36.266667 29.866667 66.133333 66.133334 66.133333 36.266667 0 66.133333-29.866667 66.133333-66.133333s-32-66.133333-66.133333-66.133334z m134.4 136.533334H896c-21.333333 38.4-66.133333 66.133333-115.2 66.133333-25.6 0-46.933333-6.4-66.133333-17.066667v153.6H810.666667c4.266667 0 10.666667-2.133333 12.8-6.4l83.2-123.733333c2.133333-2.133333 2.133333-4.266667 2.133333-10.666667v-61.866666h4.266667z"  horiz-adv-x="1024" />

    
    <glyph glyph-name="icon-test1" unicode="&#58898;" d="M518.8 347.1h-2.5v-3.6h2.6c0.9 0 2.4 0.2 2.4 1.8s-1.3 1.8-2.5 1.8zM516.1 125.1c4.4 0 8.9 0.3 13.5 0.8 43.6 5.2 80.5 35.2 94.2 76.7 1 3.1-0.5 6.4-3.5 7.8-3 1.4-6.6 0.2-8.3-2.6-0.2-0.3-17.5-27.9-84.8-36.9-10.1-1.3-19.9-2-29.2-2-47.2 0-68.2 17.6-68.4 17.8-2.4 2.1-6 2.1-8.4 0.1-2.5-2-3-5.6-1.4-8.3 20.6-32.9 57.5-53.4 96.3-53.4z m362.2 412.4c-0.6 0-1.1-0.1-1.7-0.1C837.1 706.1 686.3 832 505.5 832c-185.8 0-340-132.9-374.2-308.6-33.2-5.9-58.5-34.8-58.5-69.7V314c0-39.2 31.8-70.9 71-70.9 22.1 0 41.7 10.3 54.7 26.2 31.4-82 95.3-148.2 176.3-183.1 0.2 0.4 1.7 3.4 3.6 5.7 1.3 1.6 2.7 3 3.9 3 1.3 0 2.4-0.5 3.4-1.2-18.7 13.8-86.4 84.6-101 183.4-6.4 43.5 26.5 86.2 65 93.2 61.6 11.3 123 24.3 184.6 35.4 39.2 7.1 66 28.3 82.4 63.7 3.8 8.3 9.4 25 11.9 49.1 0.7 3.6 3.7 6.3 7.5 6.3 2.5 0 4.7-1.3 6.1-3.1l1.7 1c24.3-34.8 72.5-112 79.4-193.4 7.9-93 3.5-156.7-68.6-221.9l-0.3-0.3c-1-1.1-1.6-2.5-1.6-4 0-2 1.1-3.7 2.7-4.8 0.6-0.2 1.2-0.6 1.8-0.8 0.5-0.1 0.9-0.3 1.4-0.3 0.5 0 0.9 0.2 1.4 0.3 1 0.5 2 1.1 3 1.7 72.9 39.7 128.8 105.9 154.7 185.6 10.5-15.4 26.8-26.4 45.9-30.3-30.7-137-154.5-222.8-307.8-235.8-9.2 22.5-31.8 38.5-58.4 38.5-34.7 0-62.8-27.1-62.8-60.6s28.1-60.6 62.8-60.6c28 0 51.4 17.8 59.6 42.1 177.5 14.3 319.8 118.5 349.5 280.4 26.2 10.9 44.6 36.3 44.6 66V465.9c0 39.5-32.6 71.6-72.9 71.6z m-65.5-40.6c-46.3 123.9-166.3 212.4-307.4 212.4-140.5 0-260.1-87.8-306.8-210.8-2.3 2.8-5.1 5.2-7.7 7.6 26.5 150 157.2 264 314.7 264 156.8 0 287.1-112.9 314.4-261.9-2.7-3.6-5.2-7.3-7.2-11.3z m-438-410.7c-0.1-0.1-0.1-0.1 0 0z"  horiz-adv-x="1024" />

    
    <glyph glyph-name="jiaojie" unicode="&#58985;" d="M459.431495-77.99436H151.129008c-48.780655 0-88.680167 41.255746-88.680167 92.57387v831.239853h710.316329c48.824404 0 88.855165-41.474494 88.855165-92.792618V406.005981a25.024695 25.024695 0 0 1 49.96189 0V753.245493c0 78.749039-61.992993 142.754507-138.773306 142.754507H12.486951v-881.42049C12.486951-63.907032 74.392445-127.737503 151.129008-127.737503h309.746219a25.024695 25.024695 0 1 1 0 50.005639h-1.399983zM188.316054 521.373323h571.061779a25.024695 25.024695 0 0 1 0 49.96189H186.916071a25.024695 25.024695 0 1 1 0-50.005639h1.399983z m2.799966 149.841921h572.461762a25.024695 25.024695 0 0 1 0 50.00564H189.672288a25.024695 25.024695 0 0 1 0-50.00564h1.399983zM761.784054-127.737503a249.765701 249.765701 0 1 1-249.809451 249.371956 249.721952 249.721952 0 0 1 249.809451-249.371956z m0 49.96189A199.803811 199.803811 0 1 0 961.500366 121.634453a199.803811 199.803811 0 0 0-199.760061-199.803811zM826.79576 27.835598a111.517389 111.517389 0 0 0-66.192942-20.693498c-3.106212 0-6.212424 0-9.274886 0.481244l-3.762454 0.481245c-2.406221 0.306246-4.812441 0.656242-7.174913 1.093736-1.443732 0.262497-2.887465 0.656242-4.374946 1.006238-2.318722 0.568743-4.374947 1.093737-6.824917 1.793728l-3.193711 1.093737c-2.581218 0.874989-5.162437 1.793728-7.699906 2.843715l-1.66248 0.743741c-2.931214 1.312484-5.818679 2.668717-8.749893 4.374946h-0.393745a114.7111 114.7111 0 0 0-25.768436 19.556012l-0.349995 0.393745q-3.543707 3.587456-6.781168 7.524908l-1.356233 1.749979a115.104845 115.104845 0 0 0-24.849697 71.355379h26.24968a1.924977 1.924977 0 0 1 1.574981 2.974963l-44.186961 67.111681a1.924977 1.924977 0 0 1-3.193711 0l-44.186961-67.111681a1.924977 1.924977 0 0 1 1.574981-2.974963h26.24968a151.285653 151.285653 0 0 1 26.249679-85.573956c0-0.349996 0.349996-0.699991 0.568743-1.049987 1.706229-2.49372 3.631206-4.768692 5.468684-7.131163 0.699991-0.874989 1.312484-1.793728 2.056224-2.668717 2.712467-3.324959 5.599932-6.474921 8.749894-9.537384l0.83124-0.874989a147.829445 147.829445 0 0 1 33.51209-25.462189l0.962489-0.568743c3.543707-1.924977 7.174912-3.674955 10.849867-5.293686l2.756217-1.224985c3.149962-1.312484 6.387422-2.49372 9.624882-3.587456l4.637444-1.574981c2.843715-0.83124 5.77493-1.574981 8.749893-2.274972 1.924977-0.437495 3.893702-0.962488 5.862428-1.356233 0.83124 0 1.61873-0.437495 2.406221-0.568744 2.756216-0.481244 5.556182-0.78749 8.312398-1.093736l2.974964-0.393745c4.987439-0.481244 9.931129-0.83124 14.874818-0.83124a146.910707 146.910707 0 0 1 85.26771 27.387165 18.287277 18.287277 0 0 1 4.374946 25.243442 17.762283 17.762283 0 0 1-24.937195 4.374947zM910.925983 121.634453a151.416902 151.416902 0 0 1-26.249679 85.355208c-0.218747 0.393745-0.393745 0.83124-0.656242 1.224985-2.056225 2.974964-4.374947 5.73118-6.518671 8.531146l-0.78749 1.006237a147.698197 147.698197 0 0 1-55.69307 42.349483l-1.793728 0.83124c-3.456208 1.443732-6.956165 2.712467-10.499872 3.893703-1.268735 0.437495-2.537469 0.874989-3.849953 1.268734-3.106212 0.962488-6.212424 1.706229-9.362386 2.44997-1.749979 0.393745-3.499957 0.874989-5.249936 1.224985l-2.581218 0.568743c-2.362471 0.393745-4.724942 0.568743-7.087414 0.918739-1.61873 0-3.23746 0.481244-4.89994 0.612493-3.981201 0.349996-7.918653 0.524994-11.812356 0.612492h-2.537469a146.691959 146.691959 0 0 1-85.13646-27.255917 18.243527 18.243527 0 0 1-4.374947-25.243442 17.762283 17.762283 0 0 1 24.937196-4.374946 111.517389 111.517389 0 0 0 65.624199 20.693497q5.074938 0 9.974878-0.481244l3.018713-0.393745c2.712467-0.349996 5.381184-0.699991 8.006152-1.224985l3.456208-0.787491c2.581218-0.568743 5.162437-1.224985 7.699906-2.012475l2.362471-0.787491c2.887465-0.962488 5.73118-1.968726 8.487397-3.149961l0.831239-0.393745a113.748611 113.748611 0 0 0 42.743229-32.462104v-0.262497a115.104845 115.104845 0 0 0 26.16218-72.711612h-26.249679a1.924977 1.924977 0 0 1-1.574981-2.974964L891.413722 51.635307a1.924977 1.924977 0 0 1 3.193711 0l44.18696 67.111681a1.924977 1.924977 0 0 1-1.574981 2.974964h-26.249679z"  horiz-adv-x="1024" />

    
    <glyph glyph-name="qy_bdfw_3" unicode="&#58897;" d="M214.337 697.753c65.174 0 117.962-52.831 117.962-118.093s-52.787-117.962-117.962-117.962c-65.349 0-118.268 52.787-118.268 118.049-0.001 65.218 52.961 118.006 118.268 118.006zM499.326 177.321c-6.653 0-13.306 1.621-19.478 5.123l-147.113 67.098v-268.936l-268.926 0v268.936c0 0-4.771 112.228 139.103 129.036h22.63c62.373 5.428 98.483-14.62 148.469-45.391l111.089-62.066 78.743 129.255c11.555 18.822 36.066 24.818 55.063 13.394 18.91-11.512 24.862-36.154 13.482-55.064l-98.836-162.169c-7.528-12.342-20.747-19.216-34.229-19.216zM412.223 326.054h92.093l-17.596-28.759h-23.023l-51.474 28.759zM619.958 428.477l96.557 168.297 13.832-8.010-96.383-168.297-14.006 8.010zM960.208 294.363h-358.546v67.232h291.336v358.566l-582.673 0v-67.231h-67.231v134.462l717.114-2.933-0-490.097z"  horiz-adv-x="1024" />

    
    <glyph glyph-name="webcangdanhaiyun" unicode="&#58880;" d="M18.004195555555555 562.5012927905186c271.31450952059254 31.773147742814814 534.5510990127407-87.2208101831111 797.5391383703703-188.94044941274075l145.34040082962963-51.74010523496296c25.165824-11.433362014814815 62.0756992-20.712612750222217 95.79583169422222-29.72259912059259 5.840956681481481-77.9622724645926-14.374553372444444-128.8117361777778-44.22142695348148-157.80939305718516-300.31216639999997 0-600.5829079798518 0-900.8743613629629 0 0.6420913872592591 45.2984832 16.922204690962964 74.95894448355556 62.71779058725926 98.52989652385185C111.79090466133329 290.3997044053333 49.36309024237045 415.8767104 18.004195555555555 562.5012927905186L18.004195555555555 562.5012927905186zM201.60079098311115 671.8845989925926l0 62.44852622222222 0 15.824435427555555-15.824435427555555 0-99.37911443911112 0 0-15.824435427555555 99.37911443911112 0 0-62.44852622222222L201.60079098311115 671.8845989925926 201.60079098311115 671.8845989925926zM201.60079098311115 578.6157056l0 62.38638838518518 0 15.88657326459259-15.824435427555555 0-99.37911443911112 0 0-15.88657326459259 99.37911443911112 0 0-62.38638838518518L201.60079098311115 578.6157056 201.60079098311115 578.6157056zM612.539020325926 736.528662528l-115.20354986666668 0 0-15.88657326459259 115.20354986666668 0 0-62.38638838518518 118.16545302755556-46.914066962962956 0 78.31438768355557L612.539020325926 736.528662528 612.539020325926 736.528662528zM337.0405639205926 750.4268250074074l-115.20354986666668 0 0-15.865861461333333 115.20354986666668 0 0-62.38638838518518 118.1447412242963-46.914066962962956 0 78.29367466666666L337.0405639205926 750.4268250074074 337.0405639205926 750.4268250074074zM337.0405639205926 656.8886672497778l-115.20354986666668 0 0-15.88657326459259 115.20354986666668 0 0-62.38638838518518 118.1447412242963-46.93477997985186 0 78.33509948681481L337.0405639205926 656.8886672497778 337.0405639205926 656.8886672497778zM476.45715721481474 697.3611121777777l0-78.33509948681481 118.1447412242963-46.87264214281482 0 78.27296164977777L476.45715721481474 697.3611121777777 476.45715721481474 697.3611121777777zM476.45715721481474 603.8022426168889l0-78.29367466666666 118.1447412242963-46.87264214281482 0 78.27296164977777L476.45715721481474 603.8022426168889 476.45715721481474 603.8022426168889zM614.5481441279999 640.3185777777778l0-78.33509948681481 118.12402820740739-46.87264214281482 0 78.27296164977777L614.5481441279999 640.3185777777778 614.5481441279999 640.3185777777778zM614.5481441279999 546.7389952l0-78.29367466666666 118.12402820740739-46.87264214281482 0 78.27296164977777L614.5481441279999 546.7389952 614.5481441279999 546.7389952zM897.4202901238518 369.045494290963l87.9457524242963-31.338182883555554-0.269264365037037 10.128467437037036 33.67870767407407-1.2634697576296294 0 24.254469461333333-22.224632642370366 14.975218725925924 0 24.64800828681481-99.10985007407407 66.71532396088888-37.3862648794074 0 0 17.771421392592593-33.18160497777778 0 0 23.135988394666665-31.06891851851852 0 0-40.90740978725926-39.436813501629636 0 0-19.71840735762963 141.05289007407407 0L897.4202901238518 369.045494290963 897.4202901238518 369.045494290963zM886.2976172942224 419.95709462755553l-26.512143397925925 0 0-14.188139861333333 26.512143397925925 0L886.2976172942224 419.95709462755553 886.2976172942224 419.95709462755553zM805.2905908148149 446.88349108148145l-26.532856414814816 0 0-14.126002024296296 26.532856414814816 0L805.2905908148149 446.88349108148145 805.2905908148149 446.88349108148145zM846.6329654613335 446.88349108148145l-26.553569431703707 0 0-14.126002024296296 26.553569431703707 0L846.6329654613335 446.88349108148145 846.6329654613335 446.88349108148145zM886.2976172942224 446.88349108148145l-26.512143397925925 0 0-14.126002024296296 26.512143397925925 0L886.2976172942224 446.88349108148145 886.2976172942224 446.88349108148145zM257.2348681481481 455.39637475555554c-23.07385055762963 0-41.777339505777775-18.70348894814815-41.777339505777775-41.73591347199999 0-23.07385055762963 18.70348894814815-41.756626488888884 41.777339505777775-41.756626488888884 23.053137540740742 0 41.756626488888884 18.662064128 41.756626488888884 41.756626488888884C298.991494637037 436.6928858074073 280.28800568888886 455.39637475555554 257.2348681481481 455.39637475555554zM-11.801253205333296 86.75330063170372c48.13611068681482-26.988534290962964 100.1454802868148-26.408580740740742 155.8416952888889-0.041424820148148134 65.05831537777777-36.45419732385185 135.3776338868148-35.74996931318518 210.66798057244443-0.062137837037037034l0 0.062137837037037034c55.69621500207407-26.367155920592594 107.68487158518519-26.947108257185185 155.8416952888889 0.041424820148148134 0.45567787614814814-2.2162491164444442 0.9527805724444444-4.494637283555554 1.4291702518518519-6.648748562962963-25.870053224296296-58.720256-130.32375728355552-58.88595649422222-157.27086554074072-2.9204783407407406l0-3.4382940539259255c-36.060658498370366-74.89680664651853-174.8351604053333-75.37319632592593-211.5793351111111 1.636296779851852-28.127727160888885-53.935642548148145-129.80594157037035-53.334977194666656-156.02810879999998 3.8318328794074072-16.839353837037034-29.74331092385185-74.06830174814814-28.914807239111113-88.46356692385186 3.7696950423703695 0.269264365037037 1.242756740740741 0.5178157131851852 2.5476513185185183 0.8492167016296297 3.7696950423703695C-73.13129836088888 71.3845418666665-43.49155009422225 71.71594406874078-11.801253205333296 86.75330063170372L-11.801253205333296 86.75330063170372zM601.5613361872593 86.75330063170372c48.115398883555564-26.988534290962964 100.1454802868148-26.408580740740742 155.8416952888889-0.041424820148148134 65.05831537777777-36.45419732385185 135.3776338868148-35.74996931318518 210.66798057244443-0.062137837037037034l0 0.062137837037037034c55.67550198518518-26.367155920592594 107.70558460207405-26.947108257185185 155.86240830577776 0.041424820148148134 0.45567787614814814-2.2162491164444442 0.9113545386666665-4.494637283555554 1.4291702518518519-6.648748562962963-25.890765027555556-58.720256-130.3444690868148-58.88595649422222-157.2915785576296-2.9204783407407406l0-3.4382940539259255c-36.12279633540741-74.89680664651853-174.87658643911112-75.37319632592593-211.600048128 1.636296779851852-28.14844017777778-53.935642548148145-129.80594157037035-53.334977194666656-156.0073957831111 3.8318328794074072-16.860066853925925-29.74331092385185-74.08901476503704-28.914807239111113-88.48427994074073 3.7696950423703695 0.269264365037037 1.242756740740741 0.5385275164444444 2.5476513185185183 0.8492167016296297 3.7696950423703695C540.2312910317037 71.3845418666665 569.8710392983703 71.71594406874078 601.5613361872593 86.75330063170372L601.5613361872593 86.75330063170372z"  horiz-adv-x="1024" />

    
    <glyph glyph-name="wangluo" unicode="&#58914;" d="M512.026 896C229.089 896 1.812 668.723 1.812 385.787s227.277-510.213 510.214-510.213 510.213 227.277 510.213 510.213S794.962 896 512.026 896z m255.109-122.916v-16.235c0-48.702-4.639-95.084-13.916-141.471-32.466-6.958-55.66-34.785-55.66-67.256 0-18.555 6.958-37.105 20.874-48.702-16.235-37.104-32.466-74.214-55.66-109-85.81 97.403-146.104 220.32-166.978 357.151 53.34 32.466 111.32 57.98 171.617 74.215 34.786-11.597 69.571-27.828 99.723-48.702z m-97.408-456.873c41.743-39.424 85.81-74.214 134.512-102.041-48.701-9.278-99.722-13.917-153.062-13.917-23.194 0-46.382 2.32-69.576 2.32 0 4.639 0 9.277-2.32 13.916 32.467 30.147 62.619 64.937 90.446 99.722zM512.026 849.618c25.513 0 51.02-2.32 76.533-6.958-32.466-13.916-64.937-27.832-97.403-44.063-2.319 16.236-2.319 32.466-2.319 48.702 6.953 2.319 16.23 2.319 23.189 2.319zM637.26 350.996c-25.513-34.785-53.34-64.936-83.492-95.083-11.597 9.277-25.513 13.916-41.743 13.916-30.147 0-55.66-18.555-64.937-46.382-92.765 23.194-180.895 57.979-259.748 106.68 20.874 78.853 55.66 153.063 99.722 218 4.639 0 9.277-2.32 16.236-2.32 39.424 0 69.575 30.147 69.575 69.576 0 9.277-2.32 18.555-4.638 27.832 27.832 27.833 55.659 51.021 85.81 74.215 25.509-139.157 90.446-264.387 183.215-366.434zM117.77 142.275C76.026 211.85 50.513 290.698 48.194 376.509c27.832-23.193 55.66-46.382 85.81-64.937-9.277-51.02-16.235-104.36-16.235-157.7v-11.597z m30.146 215.68c-34.785 23.193-64.937 48.701-95.084 76.533C76.027 643.21 238.367 810.194 444.77 842.66c0-25.513 2.32-48.702 4.639-74.215a1052.744 1052.744 0 0 1-111.319-90.444c-11.597 6.958-23.194 9.277-34.785 9.277-39.424 0-69.576-30.146-69.576-69.576 0-16.235 6.958-30.146 16.236-44.062-46.388-64.937-81.173-136.832-102.047-215.685z m20.874-282.937c-2.32 25.513-4.639 51.021-4.639 78.853 0 44.063 4.639 88.126 13.916 129.874 83.492-48.701 173.937-85.81 269.02-106.68 0-2.32 0-2.32 2.32-4.639-81.172-53.34-173.937-88.125-273.659-104.36-4.639 2.314-4.639 4.633-6.958 6.952z m343.235-153.062c-113.639 0-215.68 41.743-296.853 109 97.403 18.554 185.534 55.659 264.382 109 9.277-6.959 20.874-9.278 32.465-9.278 23.194 0 41.744 11.597 55.66 27.832 27.832-2.32 55.66-4.639 83.492-4.639 74.214 0 146.104 9.278 215.68 25.513 16.235-6.958 32.466-16.235 48.701-20.874-78.848-141.47-229.59-236.554-403.527-236.554z m359.47 306.125c-64.937 32.466-125.236 76.533-176.256 127.554 25.513 39.424 46.382 81.173 64.937 122.916h6.958c39.424 0 69.575 30.147 69.575 69.576 0 27.832-16.235 51.02-39.424 62.617 9.278 41.744 13.917 83.492 13.917 127.555 99.722-85.811 162.34-211.041 162.34-352.512 0-46.382-6.959-88.126-18.555-129.874-25.513-11.597-53.346-20.874-83.492-27.832z"  horiz-adv-x="1024" />

    
    <glyph glyph-name="xiangzi" unicode="&#59027;" d="M511.488-81.92l-364.032 184.832v157.696L66.56 302.592l65.024 177.664L0 636.928 406.016 849.92l108.032-140.288 112.64 140.288L1024 633.856 900.096 481.28l73.728-176.64-90.624-45.056v-155.136L511.488-81.92z m-303.616 218.112l304.64-148.992 309.76 152.576 0.512 89.088-262.144-130.56-46.08 137.728-49.152-139.264-258.56 133.12 1.024-93.696z m-68.608 194.56l292.864-150.528 41.984 121.344-292.864 143.36-41.984-114.176z m415.232-29.184l39.936-119.808 303.616 151.04-47.104 112.64-296.448-143.872zM229.888 486.4l285.184-138.752L800.768 486.4l-286.72 147.456L229.888 486.4zM92.16 619.008l80.384-95.744L465.92 675.84 390.144 774.656 92.16 619.008z m470.016 56.32l295.936-152.576 75.264 92.672-291.84 158.72-79.36-98.816z"  horiz-adv-x="1024" />

    
    <glyph glyph-name="cangku" unicode="&#58991;" d="M544.768 871.424c-16.384 8.192-20.48 8.192-36.864 0L36.864 531.456c-16.384-4.096-16.384-40.96-8.192-57.344 16.384-16.384 45.056-20.48 57.344-8.192l28.672 20.48v-516.096c0-20.48 16.384-36.864 45.056-36.864 20.48 0 36.864 16.384 36.864 36.864v573.44L528.384 773.12l339.968-233.472v-565.248c0-20.48 16.384-36.864 45.056-36.864 20.48 0 36.864 16.384 36.864 36.864V490.496l28.672-20.48c16.384-8.192 45.056-20.48 57.344 8.192 16.384 20.48 8.192 45.056-8.192 53.248L544.768 871.424zM368.64 48.128H307.2c-20.48 0-28.672-8.192-28.672-28.672v-57.344c0-20.48 8.192-28.672 28.672-28.672H368.64c20.48 0 28.672 8.192 28.672 28.672v57.344c-8.192 28.672-8.192 28.672-28.672 28.672z m0 196.608H307.2c-20.48 0-28.672-8.192-28.672-28.672V158.72c0-20.48 8.192-28.672 28.672-28.672H368.64c20.48 0 28.672 8.192 28.672 28.672v57.344c-8.192 24.576-8.192 28.672-28.672 28.672z m188.416-196.608h-57.344c-20.48 0-28.672-8.192-28.672-28.672v-57.344c0-20.48 8.192-28.672 28.672-28.672h57.344c20.48 0 28.672 8.192 28.672 28.672v57.344c0 28.672-4.096 28.672-28.672 28.672z m200.704 0H696.32c-20.48 0-28.672-8.192-28.672-28.672v-57.344c0-20.48 8.192-28.672 28.672-28.672h57.344c20.48 0 28.672 8.192 28.672 28.672v57.344c-4.096 28.672-4.096 28.672-24.576 28.672z m-200.704 196.608h-57.344c-20.48 0-28.672-8.192-28.672-28.672V158.72c0-20.48 8.192-28.672 28.672-28.672h57.344c20.48 0 28.672 8.192 28.672 28.672v57.344c0 24.576-4.096 28.672-28.672 28.672zM368.64 445.44H307.2c-20.48 0-28.672-8.192-28.672-28.672v-57.344c0-20.48 8.192-28.672 28.672-28.672H368.64c20.48 0 28.672 8.192 28.672 28.672v57.344c-8.192 20.48-8.192 28.672-28.672 28.672z m0 0"  horiz-adv-x="1045" />

    
    <glyph glyph-name="control" unicode="&#59032;" d="M883.2 428.8h-89.6V448c0 25.6-19.2 44.8-44.8 44.8-25.6 0-44.8-19.2-44.8-44.8v-19.2H140.8c-25.6 0-44.8-19.2-44.8-44.8 0-25.6 19.2-44.8 44.8-44.8h569.6V320c0-25.6 19.2-44.8 44.8-44.8 25.6 0 44.8 19.2 44.8 44.8v19.2h89.6c25.6 0 44.8 19.2 44.8 44.8-6.4 25.6-25.6 44.8-51.2 44.8z m0-307.2H345.6v19.2c0 25.6-19.2 44.8-44.8 44.8S256 166.39999999999998 256 140.79999999999995v-19.2H140.8c-25.6 0-44.8-19.2-44.8-44.8 0-25.6 19.2-44.8 44.8-44.8h121.6v-19.2c0-25.6 19.2-44.8 44.8-44.8s44.8 19.2 44.8 44.8V32h537.6c25.6 0 44.8 19.2 44.8 44.8-6.4 25.6-25.6 44.8-51.2 44.8zM140.8 646.4h121.6v-19.2c0-25.6 19.2-44.8 44.8-44.8s44.8 19.2 44.8 44.8v19.2h537.6c25.6 0 44.8 19.2 44.8 44.8 0 25.6-19.2 44.8-44.8 44.8h-544v19.2c0 25.6-19.2 44.8-44.8 44.8s-38.4-19.2-38.4-44.8V736H140.8c-25.6 0-44.8-19.2-44.8-44.8 0-25.6 19.2-44.8 44.8-44.8z"  horiz-adv-x="1024" />

    
    <glyph glyph-name="xunjia" unicode="&#59654;" d="M934.464-45.808V-128H238.272v128.064H128.304v87.632L0 164.592l128.304 76.896V896h696.208v-128.064h109.952v-649.088l164.832-82.32-164.832-82.336zM769.504 841.12h-586.08v-630.8l-91.648-45.728 91.632-45.744v-63.888H238.4V768.08h531.248V841.12h-0.128z m109.984-749.584V713.184h-586.24V-73.12H879.36v54.88l110.096 54.896-109.968 54.88z m-274.8 73.056h-54.976v54.88h-109.968v54.88h109.968v54.896h-109.968V384h54.992v109.76h54.976V384h54.976v109.76h54.992V384h54.992v-54.88h-109.984v-54.88h109.984v-54.88h-109.984v-54.768z"  horiz-adv-x="1104" />

    
    <glyph glyph-name="mn_hezuo" unicode="&#58883;" d="M804.18133333 748.08888889c40.04977778 0 72.81777778-32.768 72.81777778-72.81777778s-32.768-72.81777778-72.81777778-72.81777778-72.81777778 32.768-72.81777778 72.81777778 32.768 72.81777778 72.81777778 72.81777778m-584.36266666 0c40.04977778 0 72.81777778-32.768 72.81777778-72.81777778s-32.768-72.81777778-72.81777778-72.81777778-72.81777778 32.768-72.81777778 72.81777778 32.768 72.81777778 72.81777778 72.81777778M803.27111111 384c40.04977778 0 72.81777778-32.768 72.81777778-72.81777778v-291.27111111H730.45333333V311.18222221999997c0 40.04977778 32.768 72.81777778 72.81777778 72.81777778m-582.54222222 0c40.04977778 0 72.81777778-32.768 72.81777778-72.81777778v-291.27111111H147.91111111V311.18222221999997c0 40.04977778 32.768 72.81777778 72.81777778 72.81777778m583.45244444 436.90666667c-80.09955555 0-145.63555555-65.536-145.63555555-145.63555556s65.536-145.63555555 145.63555555-145.63555556 145.63555555 65.536 145.63555556 145.63555556-65.536 145.63555555-145.63555556 145.63555556z m-584.36266666 0c-80.09955555 0-145.63555555-65.536-145.63555556-145.63555556s65.536-145.63555555 145.63555556-145.63555556 145.63555555 65.536 145.63555555 145.63555556-64.62577778 145.63555555-145.63555555 145.63555556zM803.27111111 456.81777778c-80.09955555 0-145.63555555-65.536-145.63555556-145.63555556v-58.25422222l-146.54577777-84.65066667L366.36444445 252.01777777999996v55.52355555c0 70.99733333-49.152 133.80266667-118.3288889 146.54577778-91.93244445 17.29422222-172.94222222-53.70311111-172.94222222-142.90488889v-327.68c0-20.02488889 16.384-36.40888889 36.40888889-36.40888889h218.45333333c20.02488889 0 36.40888889 16.384 36.4088889 36.40888889V168.27733333000003l125.61066666-72.81777778c0.91022222 0 0.91022222-0.91022222 1.82044444-0.91022222 5.46133333-3.64088889 11.83288889-4.55111111 18.20444445-4.55111111s11.83288889 1.82044445 18.20444445 4.55111111l127.4311111 74.63822222V-16.49777777999998c0-20.02488889 16.384-36.40888889 36.4088889-36.40888889h218.45333333c20.02488889 0 36.40888889 16.384 36.40888889 36.40888889V311.18222221999997c0 80.09955555-65.536 145.63555555-145.63555556 145.63555556z"  horiz-adv-x="1024" />

    
    <glyph glyph-name="gongyinglian" unicode="&#58965;" d="M869.12 420.693333a111.786667 111.786667 0 0 1-104.106667-67.84l-63.573333 13.653334a128 128 0 0 1 0 18.346666 179.2 179.2 0 0 1-108.8 163.413334l29.44 71.68a165.546667 165.546667 0 0 1 20.48 0A109.653333 109.653333 0 0 1 755.626667 725.333333a112.213333 112.213333 0 0 1-224 0 106.24 106.24 0 0 1 58.88-94.293333l-29.44-71.68A197.973333 197.973333 0 0 1 512 565.333333a194.56 194.56 0 0 1-121.173333-42.666666L246.186667 662.613333A104.106667 104.106667 0 0 1 267.52 725.333333a109.653333 109.653333 0 0 1-112.213333 106.666667A109.653333 109.653333 0 0 1 42.666667 725.333333a109.653333 109.653333 0 0 1 112.64-107.093333A116.906667 116.906667 0 0 1 220.586667 640l145.92-140.8a177.066667 177.066667 0 0 1-42.666667-114.346667 173.226667 173.226667 0 0 1 30.293333-97.706666l-123.733333-93.013334a114.346667 114.346667 0 0 1-75.52 28.16 107.093333 107.093333 0 1 1 0-213.333333 109.226667 109.226667 0 0 1 111.786667 106.666667 105.813333 105.813333 0 0 1-13.653334 51.626666l123.733334 93.013334a192.853333 192.853333 0 0 1 136.533333-55.466667 194.56 194.56 0 0 1 69.12 12.373333L635.306667 128a105.813333 105.813333 0 0 1-45.653334-85.333333 112.213333 112.213333 0 1 1 112.213334 106.666666 114.346667 114.346667 0 0 1-32.426667-4.693333l-53.333333 88.32a181.333333 181.333333 0 0 1 77.653333 97.706667l63.573333-13.653334v-3.413333a112.213333 112.213333 0 1 1 111.786667 106.666667zM512 238.933333A147.2 147.2 0 0 0 362.666667 384 147.2 147.2 0 0 0 512 526.08 147.2 147.2 0 0 0 663.466667 384 147.2 147.2 0 0 0 512 238.933333z"  horiz-adv-x="1024" />

    
    <glyph glyph-name="in" unicode="&#58890;" d="M56.888889-128h227.555555V554.666667H56.888889zM170.951111 896C104.163556 896 50.062222 845.084444 50.062222 782.222222s54.101333-113.777778 120.888889-113.777778S291.84 719.36 291.84 782.222222s-54.101333 113.777778-120.888889 113.777778M1080.888889 146.773333c0 36.408889-0.113778 72.817778-0.227556 109.226667-0.170667 62.805333-9.614222 123.904-40.789333 179.882667a218.567111 218.567111 0 0 1-118.840889 102.001777c-44.544 16.327111-90.567111 20.138667-137.329778 14.051556-48.128-6.257778-90.339556-25.372444-124.188444-60.472889-13.084444-13.596444-24.803556-28.558222-38.001778-43.918222V456.248889l-0.056889 34.702222v4.039111c0 11.377778 0 22.755556 0.227556 34.133334 0 1.706667 0 3.072-0.227556 4.266666v5.518222h-6.371555a26.168889 26.168889 0 0 1-3.356445 0.170667l-71.736889-0.170667H398.222222V-128h223.232v0.967111h0.056889v11.662222c0 117.76-0.227556 235.576889 0.227556 353.393778 0.056889 17.92 0.284444 36.693333 5.347555 53.646222 13.653333 45.681778 54.215111 83.911111 108.088889 87.495111 51.996444 3.413333 92.046222-20.536889 109.511111-69.404444 10.126222-28.046222 12.117333-57.287111 12.117334-86.755556v-350.264888h0.853333V-128H1080.888889v274.773333z"  horiz-adv-x="1080" />

    
    <glyph glyph-name="lunchuan" unicode="&#59466;" d="M957.027679 52.892907c-5.329379 14.891152-21.75549 22.617114-36.604686 17.312294-0.858554-0.306992-69.679989-24.687262-138.031726-34.437324l108.552321 309.138756a28.625968 28.625968 0 0 1-1.38658 22.2477 28.614711 28.614711 0 0 1-16.918321 14.515599l-85.742826 27.399023V558.306908c0 41.254589-33.562397 74.816986-74.820056 74.816986H655.175887V698.396503c0 52.429093-42.655496 95.082542-95.087659 95.082542H463.909725c-52.426023 0-95.082542-42.653449-95.082542-95.082542v-65.272609h-56.906058c-41.252543 0-74.813916-33.562397-74.813916-74.816986v-149.236929l-85.742826-27.399024a28.621874 28.621874 0 0 1-16.918321-14.515598 28.621874 28.621874 0 0 1-1.38658-22.2477l109.074207-310.623574c-77.103052 8.28878-135.12656 34.471093-136.204101 34.96228-14.323217 6.618744-31.341822 0.369414-37.98615-13.973246-6.638187-14.353916-0.391926-31.372521 13.96506-38.013779 3.76986-1.744737 93.63354-42.73736 205.561749-42.73736 58.600653 0 91.435479 11.587919 120.406301 21.811772 27.78481 9.807367 51.777247 18.277272 99.131764 18.277272 50.79385 0 82.549088-9.843182 116.172883-20.265556 31.442106-9.744945 63.952544-19.823488 109.086488-19.823488 89.847308 0 202.703655 40.060391 207.463052 41.766243 14.880919 5.332449 22.621207 21.719674 17.296944 36.604686zM426.097538 698.396503c0 20.849864 16.962324 37.812187 37.812187 37.812188h96.178503c20.85498 0 37.818327-16.962324 37.818327-37.812188v-65.272609H426.097538V698.396503z m-131.719974-140.089595c0 9.67536 7.869225 17.547655 17.544585 17.547655h400.155702c9.67536 0 17.549701-7.872295 17.549702-17.547655v-130.937145l-183.078689 58.502416a22.351054 22.351054 0 0 1-0.877997 0.266059 122.891911 122.891911 0 0 1-67.336618 0c-0.296759-0.083911-0.587378-0.172939-0.877996-0.266059l-183.078689-58.502416V558.306908z m94.438882-507.96715c-24.00267-8.469905-46.859237-16.507976-85.834923-18.205641a28.662807 28.662807 0 0 1-1.344625 5.560646L196.856483 336.086757l283.423071 90.564645v-355.701234c-41.153282-2.894933-67.656913-12.20702-91.463108-20.61041z m148.733463 20.405749V428.62536l289.597701-92.538603-104.780415-298.391994a28.786627 28.786627 0 0 1-1.352811-5.594415c-30.698163 1.454118-54.18918 8.67252-80.877005 16.944927-28.242228 8.755408-59.582003 18.455327-102.58747 21.700232z"  horiz-adv-x="1024" />

    
    <glyph glyph-name="jiesuan" unicode="&#59016;" d="M254.282031 446.3375h329.25v-64h-329.25zM254.282031 318.3375h138.1v-64H254.282031zM895.982031 896H127.994531A64 64 0 0 1 63.994531 832V-64a64 64 0 0 1 64-64l299.4 0.325v64L127.994531-64V832h768v-409.6h64V832A64 64 0 0 1 895.982031 896zM255.994531 702.95h512v-64H255.994531zM254.282031 574.325h512v-64h-512zM898.994531 118.2a166.25 166.25 0 0 1-44.55 18.6625q-24.8125 6.575-50.275 11.25v120a406.3375 406.3375 0 0 0 62.8625-7.625q28.425-5.9875 55.15-13.975v58.9375a368.75 368.75 0 0 1-53.6625 13.15 531.45 531.45 0 0 1-64.275 6.7875V368.25h-55.975v-44.1125a211.825 211.825 0 0 1-53.925-12.3 145.55 145.55 0 0 1-42.1625-24.1875 107.3875 107.3875 0 0 1-27.575-35.2125 101.7 101.7 0 0 1-10-45.4q0-30.125 11.45-49.6375a94.575 94.575 0 0 1 30.3375-31.8125 146.7125 146.7125 0 0 1 42.85-18.6625q23.9625-6.3625 49-10.6v-121.325H745.244531a386.5125 386.5125 0 0 0-52.625 3.6A357.7375 357.7375 0 0 0 647.744531-12.75q-18.675 5.0875-32.25 10.1875v-58.5125a123.525 123.525 0 0 1 22.7-8.0625q14.225-3.8125 32.0375-6.7875t37.95-4.6625q20.1375-1.6625 40.0875-1.7v-42.425h56v45.825a260.7375 260.7375 0 0 1 57.275 13.75 158.05 158.05 0 0 1 43.75 24.1875 101.6125 101.6125 0 0 1 27.875 34.45 97.725 97.725 0 0 1 9.75 43.9375q0 30.1125-12.0875 49.425A96.5 96.5 0 0 1 898.994531 118.2z m-150.75 38.35q-34.3625 6.3625-50.7 18.45t-16.3 34.575q0 48.3625 67.025 56.85zM870.669531 13.5a54.4375 54.4375 0 0 0-15.4875-16.675 82.3875 82.3875 0 0 0-22.9125-11.25 202.5875 202.5875 0 0 0-27.9625-6.7875v109.9a257.7625 257.7625 0 0 0 29.6875-7.0125 96.5875 96.5875 0 0 0 22.7-10 44.1375 44.1375 0 0 0 14.6375-14.2125q5.0875-8.275 5.0875-20.575-0.0125-13.575-5.75-23.3875z"  horiz-adv-x="1024" />

    
    <glyph glyph-name="huidaodingbu" unicode="&#58896;" d="M534.195665 733.59172a28.434446 28.434446 0 0 1-44.39133 0L124.675649 307.474946c-12.197618-14.210558-6.865326-25.874946 11.997657-25.874946H273.113324a34.193322 34.193322 0 0 0 34.126668-34.126668v-341.26668a34.206652 34.206652 0 0 1 34.126668-34.139998h341.26668a34.206652 34.206652 0 0 1 34.126668 34.139998v341.26668a34.193322 34.193322 0 0 0 34.126668 34.126668h136.506672c18.796329 0 24.128621 11.664388 11.997656 25.874946zM887.393348 896H136.606652a34.139999 34.139999 0 0 1 0-68.266667h750.786696a34.139999 34.139999 0 0 1 0 68.266667z"  horiz-adv-x="1024" />

    
    <glyph glyph-name="wuliucangchu" unicode="&#58888;" d="M1110.869183 468.45812L578.739268 888.560684C571.737559 895.562393 564.73585 895.562393 557.73414 895.562393s-14.003419 0-14.003419-7.001709L11.600807 468.45812c-14.003419-14.003419-14.003419-28.006838-7.00171-35.008547H102.568328v-490.119658c0-42.010256 28.006838-70.017094 70.017094-70.017094H277.611063v420.102564h560.136752v-420.102564h105.025641c42.010256 0 70.017094 28.006838 70.017094 70.017094v490.119658h98.023932c7.001709 7.001709 7.001709 21.005128 0 35.008547zM601.111918 132.211966h-86.74188v86.74188H340.899952V-128h433.682051V218.953846H601.111918v-86.74188z"  horiz-adv-x="1117" />

    
    <glyph glyph-name="feiji" unicode="&#59171;" d="M918.4 764.8c-1.6 20.8-19.2 38.4-40 40-68.8 8-134.4-16-182.4-64L564.8 609.6l-273.6 120c-24 11.2-52.8 4.8-70.4-12.8l-48-48c-3.2-3.2-6.4-6.4-8-11.2-9.6-14.4-12.8-32-8-48 3.2-16 14.4-30.4 28.8-40l209.6-132.8-129.6-129.6-80 38.4c-20.8 6.4-41.6 3.2-54.4-9.6l-44.8-44.8c-9.6-9.6-14.4-20.8-12.8-33.6 1.6-12.8 8-24 17.6-32l136-102.4c3.2-1.6 4.8-3.2 6.4-6.4l102.4-136c8-9.6 19.2-16 32-17.6h3.2c11.2 0 22.4 4.8 30.4 12.8l44.8 44.8c12.8 12.8 16 33.6 8 49.6l-38.4 80L545.6 280l132.8-209.6c3.2-3.2 4.8-8 8-11.2 12.8-12.8 28.8-19.2 44.8-19.2 16 0 32 6.4 44.8 19.2l48 48c19.2 19.2 24 46.4 12.8 70.4l-120 273.6L849.6 584c52.8 46.4 75.2 113.6 68.8 180.8z m-704-142.4l48 48L515.2 560l-36.8-36.8-41.6-41.6-222.4 140.8z m459.2-220.8L784 150.4l-48-48-140.8 220.8 40 40 38.4 38.4z m20.8 112L547.2 366.4 342.4 161.6l51.2-107.2-17.6-17.6-88 118.4c-4.8 8-11.2 14.4-19.2 19.2l-118.4 88L168 280l107.2-51.2L444.8 400l180.8 180.8 113.6 113.6c30.4 30.4 72 48 115.2 46.4 0-41.6-16-83.2-46.4-113.6L694.4 513.6z"  horiz-adv-x="1024" />

    
    <glyph glyph-name="lunchuan1" unicode="&#59201;" d="M956.8 60.8c-6.4 16-25.6 24-41.6 16l-54.4-24c-16-6.4-33.6-12.8-51.2-17.6l104 280c11.2 33.6-6.4 70.4-40 81.6L800 422.4V592c0 35.2-28.8 64-64 64h-80v64c0 52.8-43.2 96-96 96h-96c-52.8 0-96-43.2-96-96v-64h-80c-35.2 0-64-28.8-64-64v-174.4l-60.8-20.8c-16-6.4-28.8-17.6-35.2-33.6-6.4-16-8-33.6-1.6-49.6L232 30.4c-20.8 4.8-41.6 9.6-60.8 19.2l-60.8 27.2c-16 8-35.2 0-41.6-16-8-16 0-35.2 16-41.6L144-8c36.8-16 73.6-25.6 113.6-28.8h27.2c36.8 0 73.6 6.4 108.8 17.6 35.2 11.2 70.4 17.6 105.6 17.6h27.2c27.2-1.6 52.8-6.4 80-14.4l11.2-3.2c27.2-8 52.8-12.8 80-16h9.6c6.4 0 12.8 0 19.2-1.6h16c8 0 14.4 0 22.4 1.6h1.6l9.6 1.6c38.4 4.8 76.8 14.4 112 30.4l54.4 24c14.4 4.8 22.4 24 14.4 40zM432 720c0 17.6 14.4 32 32 32h96c17.6 0 32-14.4 32-32v-64H432v64z m305.6-694.4h-20.8c-3.2 0-8 0-11.2 1.6-17.6 1.6-36.8 4.8-54.4 9.6L640 40c-32 9.6-64 16-97.6 19.2v384L852.8 336 737.6 25.6zM288 592h448v-144l-152 52.8c-20.8 6.4-41.6 11.2-62.4 11.2-20.8 0-41.6-3.2-62.4-11.2L288 443.2V592z m192-155.2v-377.6c-43.2-1.6-86.4-9.6-128-24-16-4.8-33.6-9.6-49.6-9.6L185.6 336 480 436.8z"  horiz-adv-x="1024" />

    
    <glyph glyph-name="dianhua" unicode="&#58959;" d="M512 896c282.781538 0 512-229.218462 512-512s-229.218462-512-512-512S0 101.218462 0 384 229.218462 896 512 896z m0-981.346462c259.190154 0 469.346462 210.156308 469.346462 469.346462C981.346462 643.150769 771.150769 853.346462 512 853.346462 252.770462 853.346462 42.653538 643.150769 42.653538 384c0-259.190154 210.116923-469.346462 469.346462-469.346462zM351.074462 669.853538c40.96 21.661538 96.256 65.063385 128.905846-27.844923 32.689231-92.947692-1.378462-103.857231-43.559385-126.227692-29.538462-15.556923-2.126769-90.505846 29.971692-158.089846 32.177231-67.584 72.585846-135.561846 102.124308-120.044308 42.220308 22.331077 70.931692 44.544 121.895385-38.715077 50.924308-83.259077-15.084308-103.975385-56.004923-125.597538-47.222154-24.969846-167.817846 56.162462-254.503385 238.592-86.646154 182.508308-76.012308 332.957538-28.829538 357.927384z"  horiz-adv-x="1024" />

    
    <glyph glyph-name="xiangzi1" unicode="&#58984;" d="M889.738 616.483L524.47 827.372a24.948 24.948 0 0 1-24.932 0l-365.275-210.89a24.933 24.933 0 0 1-12.466-21.593v-421.778c0-8.906 4.75-17.14 12.466-21.594l365.275-210.889a24.941 24.941 0 0 1 24.932 0l365.27 210.89a24.939 24.939 0 0 1 12.465 21.593V594.889a24.939 24.939 0 0 1-12.466 21.594zM512.002 776.988L832.816 591.77 699.384 514.73 378.569 699.952l133.433 77.036zM328.699 671.162l320.816-185.221-133.417-77.03c-1.217 0.183-2.433 0.374-3.701 0.374-1.5 0-2.95-0.188-4.373-0.441L191.184 591.77 328.7 671.162zM171.66 545.46l315.806-182.328v-357.953L171.66 187.504V545.46zM852.34 187.504l-315.01-181.87V363.589L852.34 545.46v-357.956z"  horiz-adv-x="1024" />

    
    <glyph glyph-name="edu-tubiao" unicode="&#58906;" d="M978.03377778-115.77931851999995H68.6610963v60.68148148H978.03377778c15.29173333 0 27.67075555-13.59265185 27.67075555-30.46210371-0.12136297-16.62672592-12.50038518-30.21937778-27.67075555-30.21937777zM78.37013333 863.86251851v-979.64183703h-60.68148148V863.86251851c0 15.29173333 13.59265185 27.67075555 30.4621037 27.67075557 16.74808889-0.12136297 30.21937778-12.50038518 30.21937778-27.67075557zM144.51294815 257.65451851h63.35146667c10.92266667-0.36408889 21.9666963 4.61179259 28.03484443 13.83537779l67.8418963 100.36717036 96.96900742-200.8557037c4.12634075-8.61677037 12.1362963-14.44219259 21.23851851-16.62672593 16.62672592-4.2477037 33.98162963 4.49042963 39.07887407 19.78216297l130.95063704 395.5218963L687.36948148 281.3202963c3.03407408-13.59265185 15.77718518-23.54441482 31.19028149-23.54441482h159.59229628c2.79134815 0 5.33997037 0.36408889 8.00995557 0.9709037 10.8013037-18.08308148 31.67573333-30.4621037 55.82696296-30.4621037 35.31662222 0 63.71555555 26.33576297 63.71555555 58.9824 0 32.64663703-28.5202963 58.9824-63.71555555 58.9824-24.02986667 0-44.9042963-12.37902222-55.82696296-30.4621037-2.66998518 0.60681482-5.21860741 0.9709037-8.00995557 0.9709037H742.46826667l-119.90660742 362.3898074c-5.09724445 15.4130963-22.9376 24.27259259-39.80705184 19.53943704-5.82542222-1.57771852-10.8013037-4.73315555-14.56355556-8.73813334-3.15543703-3.15543703-5.46133333-6.91768889-7.03905185-11.04402962L424.74002963 266.02856296000004l-86.16770371 179.01037037c-1.45635555 3.64088889-3.76225185 7.16041482-6.91768889 9.95176297-0.12136297 0.24272592-0.36408889 0.36408889-0.48545185 0.36408888l-0.60681481 0.60681482c-8.98085925 7.88859259-22.81623703 10.55857778-35.07389629 5.46133333-6.91768889-2.91271111-12.25765925-7.64586667-15.29173333-13.47128889L191.23768889 316.51555555000004h-46.72474074c-17.59762963 0-31.7970963-13.22856297-31.7970963-29.61256297-0.12136297-16.01991111 14.19946667-29.24847408 31.7970963-29.24847407"  horiz-adv-x="1024" />

    
    <glyph glyph-name="dingwei" unicode="&#58891;" d="M0 384C0 666.815789 229.184211 896 512 896s512-229.184211 512-512S794.736842-128 512-128 0 101.263158 0 384z m472.565789-354.394737a39.473684 39.473684 0 0 0 78.868422 0v-76.947368a433.223684 433.223684 0 0 1 391.907894 391.907894h-76.986842a39.473684 39.473684 0 0 0 0 78.868422h76.934211A433.131579 433.131579 0 0 1 551.381579 815.342105v-76.986842a39.473684 39.473684 0 1 0-78.855263 0V815.342105A433.131579 433.131579 0 0 1 80.618421 423.434211h77.026316a39.473684 39.473684 0 0 0 0-78.868422H80.657895a433.236842 433.236842 0 0 1 391.907894-391.907894v76.947368z m39.473685 470.671053a116.263158 116.263158 0 1 0-116.236842-116.276316 116.236842 116.236842 0 0 0 116.236842 116.276316z"  horiz-adv-x="1024" />

    
    <glyph glyph-name="qiuti" unicode="&#58967;" d="M512 896C229.234286 896 0 666.765714 0 384s229.234286-512 512-512 512 229.234286 512 512S794.765714 896 512 896zM271.062857 384c0 77.497143 9.371429 150.457143 25.622857 215.325714 64.868571 16.251429 137.828571 25.622857 215.325715 25.622857s150.457143-9.371429 215.325714-25.622857c16.251429-64.868571 25.622857-137.828571 25.622857-215.325714s-9.371429-150.457143-25.622857-215.325714c-64.868571-16.251429-137.828571-25.622857-215.325714-25.622857s-150.457143 9.371429-215.325715 25.622857c-16.262857 64.868571-25.622857 137.828571-25.622857 215.325714z m-6.994286-206.32C124.068571 219.828571 30.114286 296.331429 30.114286 384s93.954286 164.171429 233.954285 206.32C249.302857 527.188571 240.937143 457.485714 240.937143 384s8.365714-143.188571 23.131428-206.32z m495.862858 412.64C899.931429 548.171429 993.885714 471.668571 993.885714 384s-93.954286-164.171429-233.954285-206.32c14.765714 63.131429 23.131429 132.834286 23.131428 206.32s-8.365714 143.188571-23.131428 206.32z m221.28-98c-46.445714 56.251429-127.851429 102.594286-229.828572 131.211429C722.742857 725.314286 676.571429 806.857143 620.308571 853.211429c179.028571-41.188571 319.668571-181.965714 360.902858-360.891429zM718.308571 632c-63.154286 14.754286-132.845714 23.085714-206.308571 23.085714s-143.154286-8.342857-206.308571-23.085714C347.851429 771.942857 424.342857 865.885714 512 865.885714S676.148571 771.942857 718.308571 632zM403.691429 853.211429C347.428571 806.857143 301.257143 725.314286 272.617143 623.531429c-101.965714-28.571429-183.382857-74.914286-229.817143-131.211429C84.022857 671.245714 224.662857 812.022857 403.691429 853.211429zM42.788571 275.68c46.445714-56.251429 127.851429-102.594286 229.828572-131.211429C301.257143 42.685714 347.428571-38.857143 403.691429-85.211429 224.662857-44.022857 84.022857 96.754286 42.788571 275.68zM305.691429 136c63.154286-14.754286 132.845714-23.085714 206.308571-23.085714s143.154286 8.342857 206.308571 23.085714C676.148571-3.942857 599.657143-97.885714 512-97.885714S347.851429-3.942857 305.691429 136z m314.617142-221.211429C676.571429-38.857143 722.742857 42.685714 751.382857 144.468571c101.965714 28.571429 183.382857 74.914286 229.817143 131.211429-41.222857-178.925714-181.862857-319.702857-360.891429-360.891429z"  horiz-adv-x="1024" />

    
    <glyph glyph-name="tixing" unicode="&#58892;" d="M863.616 195.52V467.392c-5.44 147.712-113.28 280.96-255.552 317.12v6.4C608 848 569.088 896 512 896c-57.984 0-96-48-96-105.088v-6.4c-146.88-39.872-245.632-165.76-255.616-317.12v-271.872l-96-98.752v-92.416H355.2C371.52-69.12 434.944-123.52 512-123.52c77.056 0 140.48 54.4 156.8 127.808h290.88v92.416l-96.064 98.752zM512 835.264c19.008 0 31.744-16.32 31.744-38.016h-63.488c0 21.76 12.736 38.016 31.744 38.016z m0-895.296a92.8 92.8 0 0 0-89.728 64.384h179.456A92.8 92.8 0 0 0 512-60.032z m383.36 127.808H128.64v3.584l95.168 98.816V464.64c0 137.728 151.36 268.224 288.192 268.224 138.624 0 287.232-129.536 287.232-268.16v-294.528l96.064-98.816v-3.584z"  horiz-adv-x="1024" />

    
    <glyph glyph-name="huaban" unicode="&#58893;" d="M816.518 164.42l139.655-140.205c26.433-26.537 26.394-69.526-0.093-96.013l0.454 0.455c-26.49-26.49-69.389-26.445-95.824 0.095L717.467 72.559c-68.434-45.892-150.794-72.667-239.415-72.667C240.541-0.108 48 192.21 48 429.446 48 666.682 240.54 859 478.052 859c237.511 0 430.052-192.318 430.052-429.554 0-100.004-34.213-192.026-91.586-265.025z m-338.466-51.488c175.008 0 316.88 141.708 316.88 316.514S653.06 745.959 478.053 745.959c-175.008 0-316.88-141.707-316.88-316.513 0-174.806 141.872-316.514 316.88-316.514z"  horiz-adv-x="1024" />

    
    <glyph glyph-name="guojibiaozhunjizhuangxiangyunliang-zhongliang" unicode="&#59127;" d="M5.06 574.632l108.814 33.864v-290.144l-11.674-0.94v82.69H84.756v-101.674l9.448 0.812 19.67 1.668v-168.886H5.058v442.61z m320.498 86.452l695.812-118.69v-411.57H325.558v530.26z m61.912-83.63v-383.78c0-14.452 11.672-26.166 26.08-26.166 14.45 0 26.166 11.714 26.166 26.168v383.78c0 14.45-11.716 26.164-26.168 26.164-14.406 0-26.08-11.714-26.08-26.166z m545.308-73.968v-314.554c0-11.844 9.58-21.424 21.464-21.424 11.8 0 21.378 9.58 21.378 21.424V503.486c0 11.8-9.578 21.464-21.378 21.464-11.884 0-21.464-9.664-21.464-21.464z m-95.688 11.972v-325.76c0-12.268 9.92-22.19 22.19-22.19 12.228 0 22.192 9.92 22.192 22.192V515.458c0 12.228-9.964 22.146-22.192 22.146-12.27 0-22.19-9.918-22.19-22.146zM731.054 527.73v-337.216c0-12.7 10.262-23.006 22.96-23.006 12.7 0 22.96 10.304 22.96 23.006V527.73c0 12.696-10.26 22.96-22.96 22.96-12.698 0-22.96-10.264-22.96-22.96z m-106.206 14.92v-351.194a23.908 23.908 0 0 1 23.946-23.948c13.168 0 23.9 10.692 23.9 23.948V542.65c0 13.17-10.732 23.86-23.9 23.86-13.254 0-23.946-10.69-23.946-23.86z m-115.224 17.274v-367.36c0-13.852 11.2-25.056 25.01-25.056 13.854 0 25.056 11.204 25.056 25.054v367.36c0 13.856-11.2 25.06-25.056 25.06-13.81 0-25.01-11.204-25.01-25.06z m-378.476 54l155.16 48.316v-530.22h-155.16V613.926z"  horiz-adv-x="1024" />

    
    <glyph glyph-name="huiqiancesuan" unicode="&#58912;" d="M933.026 246.592h-54.484V777.688h54.763c15.16 0 27.459 12.461 27.459 27.63s-12.3 27.629-27.459 27.629H91.253c-15.16 0-27.46-12.46-27.46-27.63s12.3-27.629 27.46-27.629h36.181v-531.096h-36.46c-15.16 0-27.458-11.949-27.458-27.117s12.299-27.118 27.458-27.118H346.071L213.73-20.16c-8.008-12.871-4.075-29.809 8.796-37.826a27.385 27.385 0 0 1 14.498-4.148c9.153 0 18.127 4.586 23.329 12.943L407.53 187.152a27.569 27.569 0 0 1 2.522 5.204h74.319v-228.368c0-15.168 12.47-27.458 27.629-27.458s27.63 12.29 27.63 27.458v228.37h74.318a27.539 27.539 0 0 1 2.522-5.205l147.175-236.345c5.203-8.357 14.176-12.943 23.329-12.943 4.969 0 9.975 1.34 14.498 4.148 12.871 8.017 16.804 24.955 8.795 37.826L677.93 192.357H933.026c15.16 0 27.458 11.95 27.458 27.118s-12.299 27.117-27.458 27.117z m-109.743 0h-640.59V777.688h640.59v-531.096zM274.307 503.442h84.306c7.58 0 14.372 4.796 17.09 11.875l45.442 118.748L540.97 348.912c2.843-6.802 9.51-10.222 16.875-10.222h0.072c7.383 0 14.05 3.63 16.858 10.468l63.8 154.284h111.675c10.119 0 18.306 8.31 18.306 18.42s-8.187 18.42-18.306 18.42H626.313c-7.42 0-14.105-4.708-16.929-11.572l-51.698-125.972L437.25 689.863c-2.879 6.891-9.404 10.734-17.162 11.288-7.472-0.116-14.14-4.65-16.804-11.632l-57.258-149.238h-71.72c-10.119 0-18.306-8.31-18.306-18.42s8.188-18.419 18.306-18.419z"  horiz-adv-x="1024" />

    
    <glyph glyph-name="loudongpeizhi" unicode="&#58983;" d="M887.466667-25.6h102.4v-68.266667H34.133333v68.266667h102.4V861.866667h614.4v-887.466667h68.266667V725.333333h68.266667v-750.933333zM204.8 793.6v-819.2h477.866667V793.6H204.8z m68.266667-68.266667h136.533333v-102.4H273.066667V725.333333z m0-170.666666h136.533333v-102.4H273.066667v102.4z m0-170.666667h136.533333v-102.4H273.066667v102.4z m0-170.666667h136.533333v-102.4H273.066667v102.4z m204.8 512h136.533333v-102.4h-136.533333V725.333333z m0-170.666666h136.533333v-102.4h-136.533333v102.4z m0-170.666667h136.533333v-102.4h-136.533333v102.4z m0-170.666667h136.533333v-102.4h-136.533333v102.4z m273.066666 512h136.533334v-68.266666h-136.533334V725.333333z"  horiz-adv-x="1024" />

    
    <glyph glyph-name="tuandui" unicode="&#58973;" d="M847.552 640.64a145.536 145.536 0 0 1-125.248 126.208A145.92 145.92 0 0 1 558.656 602.24 146.496 146.496 0 0 1 684.8 476.16a145.664 145.664 0 0 1 162.752 164.544z m-373.056 0a146.496 146.496 0 0 1-126.144 126.208A145.92 145.92 0 0 1 184.704 602.24 147.456 147.456 0 0 1 311.68 476.16 145.664 145.664 0 0 1 474.496 640.64zM324.544 402.048C216.704 402.048 0 346.24 0 235.648v-245.056c0-10.048 8.256-18.304 18.304-18.304h612.544a18.368 18.368 0 0 1 18.304 18.304v245.056c0 110.592-216.704 166.4-324.608 166.4z m322.752-2.752c54.848-39.296 93.248-93.248 93.248-163.648v-245.056c0-10.048 8.256-18.304 18.304-18.304h246.848a18.368 18.368 0 0 1 18.304 18.304v245.056c0 110.592-220.352 166.4-330.944 166.4-13.76 0-29.312-0.96-45.76-2.752z"  horiz-adv-x="1024" />

    
    <glyph glyph-name="cankaoxinxi" unicode="&#59066;" d="M314.762569 347.361468c-90.656881 0-164.40367-73.746789-164.40367-164.40367s73.746789-164.40367 164.40367-164.40367 164.40367 73.746789 164.40367 164.40367-73.746789 164.40367-164.40367 164.40367z m0-256c-50.26055 0-91.59633 40.866055-91.59633 91.59633 0 50.26055 40.866055 91.59633 91.59633 91.59633s91.59633-40.866055 91.59633-91.59633c-0.469725-50.730275-41.33578-91.59633-91.59633-91.59633zM845.081835 676.638532h-241.438532c-20.198165 0-36.638532-16.440367-36.638532-36.638532s16.440367-36.638532 36.638532-36.638532h241.438532c20.198165 0 36.638532 16.440367 36.638532 36.638532s-16.440367 36.638532-36.638532 36.638532z m0-365.915596h-241.438532c-20.198165 0-36.638532-16.440367-36.638532-36.638532s16.440367-36.638532 36.638532-36.638532h241.438532c20.198165 0 36.638532 16.440367 36.638532 36.638532s-16.440367 36.638532-36.638532 36.638532z m0 219.361468h-241.438532c-20.198165 0-36.638532-16.440367-36.638532-36.638532s16.440367-36.638532 36.638532-36.638533h241.438532c20.198165 0 36.638532 16.440367 36.638532 36.638533s-16.440367 36.638532-36.638532 36.638532z m0-374.840367h-241.438532c-20.198165 0-36.638532-16.440367-36.638532-36.638532s16.440367-36.638532 36.638532-36.638533h241.438532c20.198165 0 36.638532 16.440367 36.638532 36.638533s-16.440367 36.638532-36.638532 36.638532zM433.602936 699.655046L295.034128 529.614679 214.241468 621.680734c-13.622018 15.031193-36.638532 15.970642-51.669725 2.818349-14.561468-13.152294-15.970642-36.168807-3.288073-51.2l81.262385-91.596331c14.091743-15.970642 33.820183-24.895413 54.957798-24.895413 22.077064 0 42.744954 9.86422 56.836697 26.774312l138.099083 170.040367c12.212844 15.970642 8.924771 38.987156-7.045872 51.2-15.500917 11.743119-37.108257 9.394495-49.790825-5.166972zM954.527706 896H77.081835C36.685505 896 3.804771 863.119266 3.804771 822.722936v-877.915597C3.804771-95.119266 36.685505-128 77.081835-128h877.915596c40.39633 0 73.277064 32.880734 73.277064 73.277064V822.722936C1027.804771 863.119266 994.924037 896 954.527706 896zM77.081835-54.722936V822.722936h877.915596v-877.915597H77.081835z"  horiz-adv-x="1116" />

    
    <glyph glyph-name="baoxian" unicode="&#59105;" d="M512.363789-128l-14.416842 6.117053a866.438737 866.438737 0 0 0-217.734736 134.736842A983.147789 983.147789 0 0 0 104.542316 208.545684L98.074947 217.546105V817.529263l42.819369-8.623158a467.806316 467.806316 0 0 1 218.489263 0 315.284211 315.284211 0 0 1 128.134737 64.673684L511.285895 896l24.46821-21.234526A389.066105 389.066105 0 0 1 696.306526 809.256421a444.092632 444.092632 0 0 1 185.936842-11.15621l43.573895 9.350736v-588.126315l-4.688842-8.272843a678.750316 678.750316 0 0 0-168.690526-198.925473 1054.72 1054.72 0 0 0-225.684211-133.551158z m-342.231578 367.858526a909.096421 909.096421 0 0 1 156.591157-172.463158 794.947368 794.947368 0 0 1 185.344-116.978526 971.398737 971.398737 0 0 1 195.799579 118.056421 603.136 603.136 0 0 1 146.135579 169.768421V721.434947A584.757895 584.757895 0 0 0 680.138105 739.058526 524.368842 524.368842 0 0 0 513.441684 801.684211a429.056 429.056 0 0 0-133.901473-62.652632 496.316632 496.316632 0 0 0-209.488843-7.895579zM429.931789 626.526316a26.624 26.624 0 0 0 9.350737-36.001684 533.557895 533.557895 0 0 0-35.974737-84.938106v-317.925052a26.650947 26.650947 0 1 0-53.274947 1.805473v236.463158c-10.078316-12.961684-20.533895-25.546105-31.690105-38.157473a23.04 23.04 0 0 0-35.974737 0q-12.961684 16.572632 7.194947 44.274526l9.350737 11.883789a550.103579 550.103579 0 0 1 89.977263 166.642527 27.755789 27.755789 0 0 0 41.040842 15.952842z m68.742737-18.863158h168.798316a35.974737 35.974737 0 0 0 36.001684-35.974737v-97.549474a35.974737 35.974737 0 0 0-36.001684-35.974736h-59.28421v-39.585685h110.48421a25.573053 25.573053 0 1 0 0-51.2H653.190737a387.664842 387.664842 0 0 1 84.587789-101.133473 22.986105 22.986105 0 0 0 7.922527-13.689264 28.052211 28.052211 0 0 0-13.689264-26.624 24.468211 24.468211 0 0 0-30.935578 2.15579 529.623579 529.623579 0 0 0-89.626948 138.940632h-3.610947v-158.369685a25.546105 25.546105 0 1 0-51.2 0v158.450527h-3.961263a510.410105 510.410105 0 0 0-97.89979-147.941053 24.495158 24.495158 0 0 0-37.726316 9.728 33.818947 33.818947 0 0 0 10.078316 36.001684 347.432421 347.432421 0 0 1 84.938105 101.133474H451.085474a25.573053 25.573053 0 0 0 0 51.2h105.903158v39.504842h-58.314106a36.028632 36.028632 0 0 0-36.001684 35.974737v99.354947a36.055579 36.055579 0 0 0 36.001684 36.001684zM653.190737 487.127579V559.157895h-140.126316v-71.976421z"  horiz-adv-x="1024" />

    
    <glyph glyph-name="diqiu1" unicode="&#58952;" d="M512 832C264.6 832 64 631.4 64 384s200.6-448 448-448 448 200.6 448 448S759.4 832 512 832z m0-224c-29.5 0-58.3 2.6-86.2 7.5C452 720.7 491.4 776 512 776c20.6 0 60-55.3 86.2-160.5-27.9-4.8-56.7-7.5-86.2-7.5z m140.7 20.4c-13.6 55.7-31.8 102.6-53.1 137.4 63.6-14.6 121.3-44.7 169-86.1-35.3-21.8-74.3-39.1-115.9-51.3z m-281.4 0c-41.6 12.2-80.5 29.6-115.8 51.3 47.7 41.4 105.3 71.4 168.9 86-21.3-34.7-39.4-81.6-53.1-137.3zM679.5 412c-1.3 57.5-6.7 111.9-15.4 161.4 52.5 15 101.3 37.3 144.8 65.8 53.4-62 87.5-140.7 93.7-227.2H679.5z m-558.1 0c6.2 86.4 40.2 165.1 93.5 227.1 43.5-28.5 92.4-50.6 145-65.6-8.7-49.6-14.1-104-15.4-161.5H121.4z m279.1 0c1.3 55.7 6.4 105.4 13.9 148.7 31.6-5.6 64.1-8.7 97.6-8.7 33.4 0 66 3 97.6 8.6 7.5-43.3 12.5-93 13.9-148.6h-223z m408.4-283.2c-43.5 28.5-92.3 50.8-144.8 65.8 8.7 49.6 14.1 104 15.4 161.4h223.1c-6.2-86.5-40.3-165.2-93.7-227.2z m-394.5 78.5c-7.5 43.3-12.5 93-13.9 148.7h222.9c-1.3-55.6-6.3-105.3-13.9-148.6C578 213 545.4 216 512 216c-33.4 0-66-3.1-97.6-8.7zM215 128.9c-53.3 62-87.4 140.7-93.5 227.1h223.1c1.3-57.5 6.7-111.9 15.4-161.5-52.6-15-101.5-37.1-145-65.6zM512-8c-20.6 0-60 55.3-86.2 160.5 27.9 4.8 56.7 7.5 86.2 7.5s58.3-2.7 86.2-7.5C572 47.3 532.6-8 512-8z m87.6 10.2c21.3 34.8 39.5 81.7 53.1 137.4 41.7-12.2 80.6-29.5 115.9-51.2-47.7-41.5-105.4-71.6-169-86.2z m-175.2 0c-63.6 14.6-121.2 44.6-168.9 86 35.2 21.8 74.1 39.1 115.8 51.3 13.7-55.6 31.8-102.5 53.1-137.3z"  horiz-adv-x="1024" />

    
    <glyph glyph-name="ren-copy" unicode="&#59728;" d="M958.924 65.59500000000003c-0.003 136.025-78.11 252.291-188.563 299.708 53.495 38.552 88.75 104.233 88.75 178.822 0 101.833-65.684 187.06-153.85 209.222-0.817 0.214-1.584 0.1-2.33-0.21-1.004 0.1-1.975 0.332-2.997 0.332-18.835 0-34.105-16.474-34.105-36.788 0-18.349 12.493-33.428 28.782-36.203 2.9-1.275 6.702-2.246 6.852-2.303 51.056-18.689 87.8-70.751 87.8-132.137 0-68.447-45.71-125.327-106-137.232-0.085-0.007-0.157-0.175-0.242-0.221-20.056-1.367-35.984-19.167-35.984-41.137 0-22.302 16.396-40.365 36.88-41.247 0.144-0.075 0.269-0.315 0.415-0.326 121.25-13.32 207.197-124.712 207.197-260.287 0-20.067 15.09-36.338 33.7-36.338 18.156 0 32.853 15.525 33.56 34.92 0.024 0.19 0.136 0.34 0.136 0.529 0 0.067-0.022 0.136-0.022 0.218 0.01 0.225 0.022 0.443 0.022 0.664v0.014h-0.001zM555.112 359.27200000000005c63.882 46.16 105.96 124.649 105.96 213.806 0 142.067-106.789 257.243-238.53 257.243-131.733 0-238.529-115.176-238.529-257.243 0-89.164 42.087-167.646 105.957-213.806C157.92 302.43899999999996 64.555 163.35799999999995 64.555 0.6699999999999591c0-9.162 0.482-18.178 1.132-27.15h0.06c0-19.804 14.882-35.842 33.247-35.842 18.353 0 33.239 16.04 33.239 35.841 0 1.115-0.211 2.168-0.307 3.26-0.64 7.895-1.19 15.8-1.19 23.892 0 173.802 130.641 314.687 291.804 314.687 161.165 0 291.81-140.885 291.81-314.687 0-8.387-0.55-16.636-1.236-24.816-0.003-0.428-0.114-0.814-0.114-1.242 0-0.136 0.039-0.257 0.039-0.382-0.022-0.235-0.015-0.482-0.04-0.71h0.111c0.55-19.274 15.129-34.756 33.132-34.756 18.01 0 32.59 15.474 33.139 34.756h0.071c0.626 8.974 1.072 18 1.072 27.136 0.006 162.7-93.354 301.781-225.412 358.614z m-132.57 29.025c-94.628 0-171.338 82.73-171.338 184.781 0 102.047 76.71 184.779 171.339 184.779s171.338-82.73 171.338-184.779c0-102.05-76.71-184.781-171.338-184.781z m0 0"  horiz-adv-x="1024" />

    
    <glyph glyph-name="haiyun" unicode="&#58889;" d="M1024 321.6L903.6 70.8c-15.1-29.2-45.1-47.5-78-47.5H116c-13.1 0-21.6 13.8-15.7 25.5l0.3 0.6c9.6 19.1 3.9 42.3-13.5 54.7l-1 0.7C45.9 133.6 22 180.1 22 229.6v56.9h631.8v0.4c0 19.2 15.6 34.7 34.7 34.7H1024zM618.6 532.2H495.8c-9.7 0-17.6-7.9-17.6-17.5v-193c0-9.7 7.9-17.5 17.6-17.5h122.8c9.7 0 17.5 7.9 17.5 17.5v193c0.1 9.7-7.8 17.5-17.5 17.5zM829.2 462H688.9c-9.7 0-17.6-7.9-17.6-17.5v-70.2c0-9.7 7.9-17.5 17.6-17.5h140.4c9.7 0 17.6 7.9 17.6 17.5v70.2c-0.1 9.7-8 17.5-17.7 17.5zM285.2 304.1h140.4c9.7 0 17.5 7.9 17.5 17.5V462c0 9.7-7.9 17.6-17.5 17.6H285.2c-9.7 0-17.6-7.9-17.6-17.6v-140.4c0.1-9.7 7.9-17.5 17.6-17.5zM149.3 562.3V612h33.2v33.2h-33.2v99.5h-16.6v-99.5H82.9V612h49.8v-49.8H0V529h49.8v-232.2h182.5V532.2l44 30.1h-127zM199 363.2h-49.8v66.3H199v-66.3z m0 99.6h-49.8v49.8H199v-49.8z"  horiz-adv-x="1024" />

    
    <glyph glyph-name="jiaohujilu" unicode="&#58917;" d="M1016.234667 765.354667c0 5.376-0.170667 10.24-1.024 15.530666a99.328 99.328 0 0 1-95.402667 82.090667H623.616a98.56 98.56 0 0 1-96.938667-98.048v-202.752c0-4.693333 0.170667-9.557333 0.938667-14.421333 6.314667-46.592 49.834667-84.053333 96.426667-83.626667 49.066667 0.426667 97.792 0.170667 146.773333 0.170667 48.725333 0 97.450667 0.085333 146.176-0.170667 16.298667-0.170667 31.488 3.072 45.568 10.666667 33.621333 18.432 52.906667 46.336 53.418667 84.650666 0.853333 68.778667 0.256 137.130667 0.256 205.909334z m-68.096-189.781334a44.629333 44.629333 0 0 0-45.397334-44.032H771.242667c-43.946667 0-87.637333-0.170667-131.242667 0a43.52 43.52 0 0 0-41.130667 27.050667 42.922667 42.922667 0 0 0-4.096 18.688c0 57.514667-0.170667 115.029333 0 172.629333a45.738667 45.738667 0 0 0 45.994667 45.653334h261.802667a45.056 45.056 0 0 0 45.568-43.946667c0.512-58.538667 0.512-117.333333 0-176.042667z m-450.56-373.76a114.346667 114.346667 0 0 1-1.365334 20.821334 99.157333 99.157333 0 0 1-95.914666 81.322666c-49.237333-0.426667-98.218667 0-147.456 0-50.005333 0-100.096-0.170667-150.357334 0a78.592 78.592 0 0 1-16.213333-1.706666c-45.909333-10.154667-78.506667-50.090667-78.592-96.597334v-201.728c0-26.709333 9.557333-49.834667 28.501333-68.949333 17.92-18.176 39.68-29.44 65.450667-29.610667 100.778667-0.426667 201.557333-0.597333 302.250667 0 26.794667 0.170667 49.578667 12.288 67.584 31.658667 18.602667 19.882667 26.453333 43.52 26.282666 70.485333-0.256 64.853333 0 129.621333-0.170666 194.304z m-67.84-180.650666c0-20.309333-8.362667-35.925333-27.562667-44.458667a48.213333 48.213333 0 0 0-19.456-4.096H122.794667a45.994667 45.994667 0 0 0-46.933334 46.421333c0 57.002667-0.341333 114.176 0.085334 171.178667a44.8 44.8 0 0 0 45.653333 46.250667c43.861333 0.256 87.552 0.170667 131.584 0.170666 42.581333 0 85.248 0 127.744-0.170666a45.482667 45.482667 0 0 0 41.386667-20.906667c5.546667-8.448 7.338667-17.92 7.338666-27.562667l0.085334-166.826666zM35.157333 539.562667l102.912-101.888c3.072-2.986667 4.181333-1.450667 6.229334 0.597333L245.589333 538.453333c1.024 1.024 2.730667 1.706667 2.730667 4.010667h-63.317333c-12.970667 0-19.968 6.912-19.968 19.797333 0 7.424 0.256 14.933333 1.024 22.528a256.853333 256.853333 0 0 0 20.906666 78.165334c14.08 31.402667 34.133333 58.368 59.818667 81.493333 22.442667 19.968 47.445333 35.925333 75.52 46.592 22.869333 8.874667 46.08 14.592 70.4 16.469333 2.474667 0.170667 5.376 0 5.376 4.352V859.477333c0 2.389333-0.426667 3.242667-3.413333 3.157334a305.664 305.664 0 0 1-274.005334-220.16c-7.509333-25.258667-10.837333-51.2-11.008-77.653334 0-15.872-6.826667-22.613333-22.869333-22.613333H39.338667c-1.962667 0-3.754667 0.597333-5.973334-0.768 0.768-0.938667 1.194667-1.536 1.792-1.877333z m956.928-310.784c-34.218667 34.048-68.693333 67.84-102.997333 101.888-3.072 2.986667-4.437333 1.109333-6.314667-0.853334L781.568 229.546667c-0.853333-0.853333-2.816-1.536-2.218667-3.754667h61.696c14.336-0.341333 21.333333-7.594667 21.333334-21.76 0.341333-21.930667-3.669333-43.349333-9.557334-64.597333a239.957333 239.957333 0 0 0-83.797333-125.610667 235.178667 235.178667 0 0 0-91.306667-45.738667c-13.824-3.328-27.648-6.741333-41.984-7.68-2.56-0.256-6.826667 0.853333-6.826666-4.352 0.170667-15.786667 0-31.744 0-47.616 0-2.389333 0.853333-3.925333 3.328-3.242666 5.632 1.621333 11.690667 1.28 17.493333 1.792a290.986667 290.986667 0 0 1 97.792 28.928c41.813333 20.48 77.141333 48.981333 105.813333 85.674666a292.949333 292.949333 0 0 1 64 176.469334c0.682667 23.381333 4.608 27.818667 28.330667 27.818666h47.957333c0.341333 1.706667-0.768 2.218667-1.536 2.901334z"  horiz-adv-x="1024" />

    
    <glyph glyph-name="facebook" unicode="&#59022;" d="M1005.934037 879.305441C993.938823 890.514384 980.572204 896 965.706184 896H55.532723C40.776415 896 27.757219 890.404671 16.676274 879.305441 5.485616 868.224496 0 855.168729 0 840.430707v-912.733416c0-14.86602 5.485616-27.793789 16.676274-38.874734 11.080945-11.208943 24.008714-16.694559 38.856449-16.694559H546.733094V267.165515h-133.227335v155.828074H546.733094v114.10082c0 64.839985 18.047678 115.490509 54.271031 151.732148 36.095355 36.131926 83.747076 54.197889 142.936876 54.197889 51.747647 0 91.518366-2.742808 119.275584-8.228425v-133.775896h-80.547133c-51.747647 0-77.712898-25.508116-77.712898-76.250067v-101.776469h152.55499l-19.419081-155.828074h-133.227336V-127.981715h260.841057c14.738023 0 28.104641 5.485616 40.227853 16.694559 11.995214 11.080945 18.047678 24.008714 18.047678 38.874735V840.412421c0 14.756308-6.052463 27.793789-18.047678 38.874735z"  horiz-adv-x="1024" />

    
    <glyph glyph-name="shuju" unicode="&#59169;" d="M941.277-26.61h-26.469V496.97c0 10.323-8.344 18.686-18.685 18.686H715.317c-10.341 0-18.666-8.363-18.666-18.685v-523.582h-52.976V722.931c0 10.322-8.382 18.704-18.704 18.704H444.184c-10.304 0-18.685-8.382-18.685-18.704v-749.542h-52.995V384c0 10.304-8.363 18.685-18.685 18.685h-180.75c-10.322 0-18.704-8.362-18.704-18.685v-410.61h-52.994V813.314C101.37 823.637 93.008 832 82.685 832 72.363 832 64 823.637 64 813.315v-858.611C64-55.637 72.363-64 82.685-64H941.315c10.36 0 18.704 8.363 18.685 18.704-0.019 10.323-8.381 18.685-18.723 18.685z m-606.125 0H191.773V365.295h143.379v-391.907z m271.133 0H462.907V704.226h143.378v-730.838z m271.152 0H734.06V478.284h143.378V-26.61z"  horiz-adv-x="1024" />

    
    <glyph glyph-name="shishizhuizong" unicode="&#58955;" d="M511.3 0.4c-211.7 0-383.9 172.2-383.9 383.9s172.2 383.9 383.9 383.9S895.2 596 895.2 384.3 723 0.4 511.3 0.4z m0 703.8c-176.4 0-319.9-143.5-319.9-319.9S335 64.4 511.3 64.4s319.9 143.5 319.9 319.9-143.5 319.9-319.9 319.9zM511.3 832.1c17.7 0 32-14.3 32-32v-191.9c0-17.7-14.3-32-32-32s-32 14.3-32 32V800.1c0 17.7 14.4 32 32 32z m0-639.7c17.7 0 32-14.3 32-32v-191.9c0-17.7-14.3-32-32-32s-32 14.3-32 32V160.4c0 17.6 14.4 32 32 32z m447.9 191.9c0-17.7-14.3-32-32-32H735.3c-17.7 0-32 14.3-32 32s14.3 32 32 32h191.9c17.7 0 32-14.3 32-32z m-639.8 0c0-17.7-14.3-32-32-32H95.5c-17.7 0-32 14.3-32 32s14.3 32 32 32h191.9c17.7 0 32-14.3 32-32z m255.9 0c0-35.3-28.6-64-64-64-35.3 0-64 28.6-64 64 0 35.3 28.6 64 64 64s64-28.7 64-64z"  horiz-adv-x="1024" />

    
    <glyph glyph-name="icon-douyin" unicode="&#58894;" d="M957.691904 471.478272c-90.591232 0-174.501888 28.602368-243.167232 77.248512v-349.534208c0-178.399232-144.769024-323.018752-323.336192-323.018752-178.579456 0-323.33824 144.617472-323.33824 323.018752 0 178.388992 144.760832 323.004416 323.33824 323.004416 17.741824 0 35.135488-1.458176 52.103168-4.206592v-185.186304a144.021504 144.021504 0 0 1-50.774016 9.20576c-79.689728 0-144.297984-64.534528-144.297984-144.152576s64.608256-144.15872 144.297984-144.15872c79.69792 0 144.297984 64.540672 144.297984 144.15872 0 0.448512-0.024576 0.882688-0.032768 1.335296h0.032768V891.92448h180.379648c0-133.423104 108.273664-241.590272 241.82784-241.590272v-178.837504c-0.444416 0-0.888832-0.018432-1.3312-0.018432z"  horiz-adv-x="1024" />

    
    <glyph glyph-name="chat" unicode="&#58887;" d="M499.472871 894.838097C223.415381 894.838097 0 700.489352 0 460.758923 0 313.66968499999996 85.36463 182.87935800000002 214.315278 102.99855600000001v-134.418338c0-18.154728 12.71051-29.047564 27.254831-29.047565 5.444218 0 10.911908 1.798602 14.520848 3.632413l136.218407 90.808848c34.526991-7.261891 69.020241-9.095702 105.353169-9.095702 276.056023 0 499.455266 194.350212 499.455266 434.080642C998.95161 700.489352 775.558235 894.838097 499.472871 894.838097z m0-797.305765c-30.876974 0-61.759817 3.628011-92.625054 9.094235l-14.538453 3.63388c-9.07663 1.792734-18.154728 0-27.254831-5.467691l-12.687037-9.060492-65.393697-43.603622v70.818842c0 12.728115-7.260424 25.456229-18.154727 30.882843l-18.170866 10.894303C138.028745 231.95066999999995 70.842315 342.712848 70.842315 458.958854c0 199.770957 190.716332 361.404516 426.820218 361.404516 236.120023 0 426.795278-161.633559 426.795278-361.404516 1.839679-197.959152-190.675255-361.426521-424.98494-361.426522zM216.131484 448.06455c0-33.117158 26.830854-59.942143 59.949479-59.942143 33.099553 0 59.930407 26.824986 59.930407 59.942143 0 33.065811-26.830854 59.914269-59.930407 59.914269-33.118625 0-59.949479-26.848458-59.949479-59.914269z m227.043393 0c0-33.117158 26.830854-59.942143 59.931874-59.942143 33.099553 0 59.948011 26.824986 59.948011 59.942143 0 33.065811-26.848458 59.914269-59.948011 59.914269-33.10102 0-59.931874-26.848458-59.931874-59.914269z m219.747759 0c0-33.117158 26.848458-59.942143 59.931874-59.942143 33.117158 0 59.965616 26.824986 59.965616 59.942143 0 33.065811-26.848458 59.914269-59.965616 59.914269-33.083415 0-59.931874-26.848458-59.931874-59.914269zM1006.951427 354.22624599999995c-1.072413 1.351152-2.200573 2.646556-3.306728 3.999175-7.810567-29.668126-18.96894-58.246235-33.014464-85.380768 0.585352-1.318877 1.318877-2.573203 1.879289-3.890613 9.502074-21.857559 14.664619-45.47851 14.664619-70.114659 0-65.330613-37.741295-127.565754-101.007771-165.307049l-10.194521-6.120527c-6.120527-3.042659-10.235599-10.194521-10.235599-17.352252v-39.787828l-36.70996 24.504115-7.15773 5.089192c-5.089192 3.042659-10.194521 4.073994-15.283714 3.042659l-8.149455-2.011324c-17.385994-3.117479-34.739713-5.089192-52.034751-5.089192-41.592298 0-80.7669 9.204264-114.938865 25.237639-33.93137-7.924997-69.140539-12.915897-105.404516-14.62941 56.802659-48.952481 134.980218-79.22063 221.340974-79.22063 22.888894 0 44.595347 1.139897 66.303266 5.684813l85.743129-57.141547c2.269524-1.145765 5.690682-2.269524 9.088367-2.269524 9.163186 0 17.163003 6.854052 17.163003 18.270624V-23.648824999999988c81.157135 50.287496 134.89953 132.596264 134.89953 225.152367 0 56.562063-19.769948 109.123484-53.644103 152.722704z"  horiz-adv-x="1062" />

    
    <glyph glyph-name="neirong" unicode="&#59050;" d="M994.304 339.626667L530.773333 147.882667l-0.213333-0.085334-0.213333-0.085333a47.701333 47.701333 0 0 0-36.693334 0l-0.213333 0.085333-0.213333 0.085334L29.653333 339.626667a48.042667 48.042667 0 0 0 18.346667 92.373333c6.272 0 12.544-1.28 18.346667-3.669333l0.213333-0.042667 0.213333-0.128L512 243.968l445.226667 184.192a7.637333 7.637333 0 0 1 0.170666 0.128l0.256 0.042667a48 48 0 0 0 36.693334-88.661334z m0 208.042666L530.773333 355.84l-0.213333-0.085333-0.213333-0.128a47.658667 47.658667 0 0 0-36.693334 0l-0.213333 0.128-0.213333 0.085333L29.653333 547.626667a48.042667 48.042667 0 0 0 0 88.746666L493.226667 828.16l0.213333 0.085333 0.213333 0.128a47.786667 47.786667 0 0 0 36.693334 0l0.213333-0.128 0.213333-0.085333 463.573334-191.786667a47.957333 47.957333 0 0 0 0-88.704zM48.042667 224c6.272 0 12.501333-1.28 18.346666-3.669333l0.213334-0.042667 0.170666-0.085333L512 35.968l445.226667 184.234667 0.213333 0.085333 0.213333 0.085333a48 48 0 0 0 36.693334-88.661333v-0.085333L530.773333-60.16a2.304 2.304 0 0 1-0.170666-0.085333l-0.213334-0.085334a47.786667 47.786667 0 0 0-36.693333 0l-0.256 0.085334-0.213333 0.085333L29.653333 131.626667a48 48 0 0 0 18.346667 92.373333z"  horiz-adv-x="1024" />

    
    <glyph glyph-name="kefu" unicode="&#59570;" d="M918-12.3c1.7 2.9 2.7 6.1 3 9.4 0.2 0.9 0.4 1.9 0.6 2.9 0 0.8-0.4 1.4-0.4 2.2-0.1 0.8 0.2 1.4 0.1 2.2C906 92.8 864.1 145.7 809 145.7l-9.6-0.1c-45.4 0.1-78.6-0.4-112.9 48.3-8.1 11.5-24.1 14.3-35.6 6.2-11.5-8.1-14.3-24.1-6.2-35.6 49.8-70.6 108.1-70.6 155.1-70h9.3c24.5 0 43.6-31.4 54.6-68.9H409.6c-14.1 0-25.6-11.5-25.6-25.6 0-14.1 11.5-25.6 25.6-25.6H896c1.4 0 2.9 0.1 4.3 0.4 0.9 0.3 1.8 0.6 2.7 1 3.2 0.8 6.2 2.4 8.8 4.5 1.3 1 2.5 2.2 3.6 3.4 1 1.3 1.9 2.6 2.6 4zM337.3 193.8c-33.7-48.7-69.6-48.5-114.4-48.1h-9.5c-54.4 0-95.8-52.9-110.8-141.4 0-0.7 0-1.4 0.1-2.2-0.1-0.7-0.4-1.4-0.4-2.1 0.1-1 0.3-1.9 0.6-2.9 0.2-1.7 0.5-3.4 1-5.1 0.5-1.5 1.2-3 2-4.4 1.5-2.9 3.6-5.4 6.2-7.4 1.2-1 2.6-1.9 4-2.7 1.5-0.8 3.1-1.4 4.8-1.8 0.9-0.4 1.8-0.8 2.8-1.1 1.4-0.2 2.8-0.3 4.2-0.4h128c14.1 0 25.6 11.5 25.6 25.6 0 14.1-11.5 25.6-25.6 25.6h-95.8c10.8 37.5 29.4 68.9 53.3 68.9h9.2c47.9-0.5 107.7-0.7 156.8 70.2 7.9 11.6 5 27.5-6.6 35.5-11.5 8.1-27.4 5.3-35.5-6.2z m-55.7 139h51.2c4 0.1 7.9 1.1 11.4 3 35.7-93.9 105.3-156.6 167.8-156.6 11.5 0.1 22.8 1.9 33.7 5.5 13.4 4.4 20.7 18.8 16.4 32.2-4.3 13.4-18.6 20.8-32.1 16.6-5.8-1.9-11.9-3-18-3-56.7 0-140.8 99.8-140.8 237.7 0 114 47.4 171.8 140.8 171.8 48 0 84.3-15.6 107.7-46.2 8.6-11.2 24.7-13.4 35.9-4.8 11.2 8.6 13.4 24.6 4.8 35.9-33.2 43.4-84.5 66.3-148.3 66.3-100.4 0-165.5-55.1-185.4-153.6h-19.4c0 139.7 65.1 204.8 204.8 204.8 139.7 0 204.8-65.1 204.8-204.8h-25.6c-2.3-0.1-4.7-0.6-6.9-1.4-3.7 1.4-7.7 1.9-11.6 1.4-14-1.7-24-14.5-22.3-28.5 1.6-13.6 2.4-27.3 2.4-40.9 0.1-34.5-5.4-68.9-16.2-101.7-2.1-6.4-1.6-13.5 1.4-19.5 3.1-6.1 8.4-10.7 14.8-12.8 2.6-0.9 5.3-1.3 8-1.3 1 0.1 2.1 0.3 3.1 0.5 0.8-0.2 1.6-0.4 2.4-0.5h50.4c0-14.1-11.5-25.6-25.6-25.6H588.8v25.6c0 14.1-11.5 25.6-25.6 25.6-14.1 0-25.6-11.5-25.6-25.6v-51.2c0-6.8 2.7-13.3 7.5-18.1 4.8-4.8 11.3-7.5 18.1-7.5h128c42.4 0 76.8 34.4 76.8 76.8v4.7c30.6 10.8 51.1 39.6 51.2 72.1v51.2c-0.1 32.8-21 61.9-52.1 72.4 0.4 1.4 0.7 2.9 0.9 4.4 0 167.5-88.5 256-256 256s-256-88.5-256-256c0.2-1.5 0.5-3 0.9-4.4-31.1-10.5-52-39.6-52.1-72.4v-51.2c0-42.5 34.4-76.9 76.8-76.9zM768 409.6c0-14.1-11.5-25.6-25.6-25.6h-48c6.4 27.6 9.6 55.8 9.6 84.1 0 6.2-0.3 12.3-0.5 18.3h38.9c14.1 0 25.6-11.5 25.6-25.6v-51.2z m-512 51.2c0 14.1 11.5 25.6 25.6 25.6h39c-0.3-6-0.6-12-0.6-18.3 0-28.3 3.2-56.5 9.5-84.1h-47.9c-14.1 0-25.6 11.5-25.6 25.6v51.2z m0 0"  horiz-adv-x="1024" />

    
    <glyph glyph-name="baojia" unicode="&#58913;" d="M981.917017-126.090012H418.795592a41.648736 41.648736 0 0 0-7.853951 0.804995c-116.224262 25.737837-205.389696 94.104403-259.693351 147.039066-61.41761 59.719621-103.442343 123.964213-116.61326 158.348995-2.312985 6.132961-4.825969 12.265922-7.339953 18.699882-10.455934 26.139834-21.363864 53.185662-23.538851 80.029492-3.907975 47.454699 21.125866 73.796532 42.842728 87.469444 31.167802 19.604876 64.63459 22.11886 94.5074 6.836957a102.047352 102.047352 0 0 0 33.931785-28.35282c6.635958-8.343947 92.295414-115.619266 148.396058-176.546879 44.526717-48.459692 108.180313-67.461572 123.060219-71.382547H609.61938c-3.11698 4.020974-6.144961 8.042949-9.047942 12.164922-30.363807 43.633723-39.31175 84.453464-25.134841 114.816272 9.952937 21.364864 25.636837 30.663805 37.098765 34.58578 34.987778 12.164923 74.147529-7.339953 123.764214-32.072796 8.934943-4.523971 18.297884-9.148942 27.849823-13.672914 67.662571-32.574793 228.625549-91.39042 230.234539-91.993416a36.24477 36.24477 0 0 0 23.814849-33.932784v-176.596879a36.369769 36.369769 0 0 0-36.28177-36.19377zM422.817566-53.700472h522.804682V61.314798c-48.359693 17.996886-157.658999 59.418623-212.954649 86.061454a1556.040123 1556.040123 0 0 0-28.741817 14.17591c-17.594888 8.796944-34.095784 17.091892-47.555698 22.319858a123.073219 123.073219 0 0 1-14.791907 4.926969c1.419991-7.94295 7.138955-23.124853 21.364865-42.427731 16.978892-23.124853 40.416743-43.986721 59.506622-53.084663a36.20677 36.20677 0 0 0-15.570901-68.869562H442.120444a38.443756 38.443756 0 0 0-7.539953 0.803994c-3.933975 0.803995-97.72438 21.364864-164.481955 93.903404-59.92162 64.999587-148.497057 176.346881-152.217034 180.970852a11.05993 11.05993 0 0 0-1.105993 1.407991 28.577819 28.577819 0 0 1-10.053936 7.640951c-2.714983 1.256992-8.947943 3.920975-21.716863-4.121974-13.823912-8.646945-14.275909-20.710869 9.236942-79.325496 2.626983-6.434959 5.341966-13.170916 7.85495-19.906874 8.344947-21.816862 42.616729-76.963511 99.421369-132.25916 47.2657-45.74571 123.474216-104.662336 221.298595-127.283192zM841.161911 102.838535a36.143771 36.143771 0 0 0-25.637838 61.579609 384.311561 384.311561 0 0 1 112.101289 272.311271c0 213.244646-173.530898 386.775545-386.787545 386.775545S153.962273 650.074061 153.962273 436.830415a36.19377 36.19377 0 1 0-72.375541 0 459.213085 459.213085 0 1 0 918.42717-0.1 457.605095 457.605095 0 0 0-133.114155-323.234948 36.759767 36.759767 0 0 0-25.737836-10.656932zM519.435953 511.731939a29.746811 29.746811 0 0 0-21.364865 8.796944l-141.409102 141.509102a30.161809 30.161809 0 0 0 42.629729 42.62973l141.459102-141.459103a30.161809 30.161809 0 0 0-21.365864-51.526672zM531.097879 511.731939a29.734811 29.734811 0 0 0-21.363865 8.796944 30.161809 30.161809 0 0 0 0 42.62973l141.496102 141.509102a30.161809 30.161809 0 1 0 42.64173-42.62973l-141.459103-141.459102a30.161809 30.161809 0 0 0-21.364864-8.796944zM683.415912 511.429941h-316.297992a30.161809 30.161809 0 0 0 0 60.323617h316.297992a30.161809 30.161809 0 0 0 0-60.323617z m0-121.652228h-316.297992a30.161809 30.161809 0 1 0 0 60.323617h316.297992a30.161809 30.161809 0 0 0 0-60.323617zM525.266916 196.691939a30.161809 30.161809 0 0 0-30.161809 30.161809V543.10074a30.161809 30.161809 0 0 0 60.323617 0v-316.246992a30.161809 30.161809 0 0 0-30.161808-30.161809z"  horiz-adv-x="1024" />

    
    <glyph glyph-name="peiecesuan" unicode="&#58902;" d="M914.285714-128h-804.571428A109.714286 109.714286 0 0 0 0-18.285714v804.571428A109.714286 109.714286 0 0 0 109.714286 896h804.571428A109.714286 109.714286 0 0 0 1024 786.285714v-804.571428a109.714286 109.714286 0 0 0-109.714286-109.714286zM109.714286 822.857143a36.571429 36.571429 0 0 1-36.571429-36.571429v-804.571428a36.571429 36.571429 0 0 1 36.571429-36.571429h804.571428a36.571429 36.571429 0 0 1 36.571429 36.571429v804.571428a36.571429 36.571429 0 0 1-36.571429 36.571429zM149.961328 73.681138m25.859905 25.859905l620.637724 620.637724q25.859905 25.859905 51.71981 0l0 0q25.859905-25.859905 0-51.71981l-620.637724-620.637724q-25.859905-25.859905-51.71981 0l0 0q-25.859905 25.859905 0 51.71981ZM182.857143 640m36.571428 0l219.428572 0q36.571429 0 36.571428-36.571429l0 0q0-36.571429-36.571428-36.571428l-219.428572 0q-36.571429 0-36.571428 36.571428l0 0q0 36.571429 36.571428 36.571429ZM585.142857 310.857143m36.571429 0l219.428571 0q36.571429 0 36.571429-36.571429l0 0q0-36.571429-36.571429-36.571428l-219.428571 0q-36.571429 0-36.571429 36.571428l0 0q0 36.571429 36.571429 36.571429ZM585.142857 164.571429m36.571429 0l219.428571 0q36.571429 0 36.571429-36.571429l0 0q0-36.571429-36.571429-36.571429l-219.428571 0q-36.571429 0-36.571429 36.571429l0 0q0 36.571429 36.571429 36.571429ZM365.714286 749.714286m0-36.571429l0-219.428571q0-36.571429-36.571429-36.571429l0 0q-36.571429 0-36.571428 36.571429l0 219.428571q0 36.571429 36.571428 36.571429l0 0q36.571429 0 36.571429-36.571429Z"  horiz-adv-x="1024" />

    
    <glyph glyph-name="huaban-" unicode="&#58895;" d="M485.73376279-9.797361619999947C279.67182295 3.7727021399999785 118.2494375 176.52777509999999 118.2494375 383.5383044 118.2494375 600.89873086 294.88167089 777.7505625 511.9955 777.7505625s393.7460625-176.85183164 393.7460625-394.2122581a400.56799394 400.56799394 0 0 0-3.49196484-52.70707266q-1.75498242-13.22446817-4.39195606-26.17533809a28.11751875 28.11751875 0 0 1 55.09744893-11.2606875q3.05096924 14.83365146 5.05794902 29.99130029a457.72462266 457.72462266 0 0 1 3.97796045 60.15179796C961.991 631.9358205999999 760.12301885 834 511.9955 834S62 631.9358205999999 62 383.5383044c0-236.53563487 184.51615518-433.95586084 420.06179971-449.47350528 0.62999385-0.027 1.22398769-0.05579912 1.87198066-0.05579912a28.12651875 28.12651875 0 0 1 1.79998242 56.19363838z m-190.4920954 177.04442901a28.10311875 28.10311875 0 0 1 39.76160272 0L511.9955 344.22489814999994l64.49335488-64.48795576a28.11751875 28.11751875 0 1 1 39.76160273 39.76880272L551.77510185 384.0045l36.35963701 36.35963613a28.12471875 28.12471875 0 0 1-39.77960273 39.76880273l-36.35963613-36.35963701-36.35963613 36.35963701a28.12471875 28.12471875 0 1 1-39.77960273-39.76880273l36.35963701-36.35963613-176.97423076-176.98862989a28.09231875 28.09231875 0 0 1-1e-8-39.76880272z m554.25045761 188.63811386v56.2494375h-56.2494375v-56.2494375h56.2494375zM483.87978125 721.501125v-56.2494375h56.2314375V721.501125h-56.2314375zM230.7483125 355.87978124999995v56.2494375H174.498875v-56.2494375h56.2494375zM708.87753125-9.741562499999986h-52.43347529c36.62963349 41.61018428 78.87521162 91.97907979 78.87521074 139.68940342 0 24.60935391-8.45991563 46.41793594-23.86776094 61.41358564a84.37415625 84.37415625 0 0 1-143.20656826-60.47939531 28.12471875 28.12471875 0 1 1 56.2494375 0 28.12471875 28.12471875 0 0 0 47.73552276 20.15979873c4.33795693-4.22995781 6.83993145-11.91948047 6.83993144-21.09398906 0-29.11470908-42.65957373-77.39922568-70.88329072-109.36870664-14.56185411-16.47703565-27.1077293-30.67709326-35.20764845-42.83957198a28.11931875 28.11931875 0 0 1 23.39976622-43.7251623h112.498875a28.12471875 28.12471875 0 0 1 0 56.2440375z m224.99775 56.2494375v140.62359375a28.11211875 28.11211875 0 0 1-28.13371875 28.12471875h-28.13371875a28.11031875 28.11031875 0 0 1-25.14574864-15.54464443l-84.38315625-168.7483125a28.14271875 28.14271875 0 0 1 25.16374864-40.70479307h84.36515625v-28.12471875a28.13371875 28.13371875 0 0 1 56.2674375 0V-9.741562499999986a28.12471875 28.12471875 0 0 1 0 56.2494375z m-95.12904903 0l38.86161153 77.72862305V46.50787500000001h-38.86161153z"  horiz-adv-x="1024" />

    
    <glyph glyph-name="shenhe" unicode="&#58907;" d="M924.672-29.184H99.328c-37.888 0-68.608 30.72-68.608 68.608v54.784c0 23.04 16.896 43.008 40.448 46.592 194.56 28.16 299.52 105.472 330.24 242.176 4.096 17.408-4.096 35.84-19.456 46.08a248.2176 248.2176 0 0 0-119.296 212.48c0 68.608 28.672 135.168 79.36 182.272a248.832 248.832 0 0 0 418.304-162.304c7.168-94.72-38.912-183.808-119.296-232.448-15.36-9.216-22.528-27.648-18.432-45.056 30.72-137.216 135.168-213.504 330.24-241.664 23.04-3.584 40.448-23.552 40.448-46.592v-54.784c-0.512-39.936-31.232-70.144-68.608-70.144zM84.48 89.088v-50.176c0-8.704 7.168-15.872 15.872-15.872h824.32c8.704 0 15.872 7.168 15.872 15.872v50.176c-212.992 31.744-333.824 123.904-369.152 281.6-8.704 39.936 8.192 81.408 43.008 102.4a197.2224 197.2224 0 0 1 94.208 183.808c-8.192 95.744-86.528 173.568-182.272 180.224-55.296 3.072-108.032-14.848-147.968-52.736-39.936-37.888-62.464-88.064-62.464-143.36 0-68.608 35.328-131.072 94.208-167.936 34.816-20.992 52.224-62.464 43.52-102.4-35.84-157.184-156.16-249.344-369.152-281.6z m808.96-211.968H139.776c-28.16 0-51.2 23.04-51.2 51.2v44.544c0 28.16 23.04 51.2 51.2 51.2h753.664c28.16 0 51.2-23.04 51.2-51.2v-44.544c0-28.16-23.04-51.2-51.2-51.2zM141.312-70.144h750.08v40.96H141.312v-40.96z m0 0"  horiz-adv-x="1024" />

    
    <glyph glyph-name="jiarurongqi" unicode="&#59109;" d="M335.811765 391.529412c13.552941 0 24.094118-12.047059 24.094117-25.6 0-15.058824-10.541176-27.105882-24.094117-27.105883-158.117647 0-286.117647-144.564706-286.117647-320.752941 0-13.552941-10.541176-25.6-24.094118-25.6-15.058824 0-25.6 10.541176-25.6 25.6 0 164.141176 96.376471 304.188235 230.4 353.882353-63.247059 40.658824-105.411765 115.952941-105.411765 201.788235 0 129.505882 94.870588 234.917647 212.329412 234.917648 13.552941 0 24.094118-12.047059 24.094118-25.6 0-7.529412-3.011765-13.552941-7.529412-18.070589-4.517647-4.517647-10.541176-7.529412-18.070588-7.529411-88.847059 0-162.635294-81.317647-162.635294-182.211765 1.505882-102.4 73.788235-183.717647 162.635294-183.717647z m286.117647 420.141176c-114.447059 0-221.364706-97.882353-221.364706-219.858823 0-120.470588 106.917647-219.858824 221.364706-219.858824C737.882353 371.952941 843.294118 469.835294 843.294118 591.811765c0 120.470588-105.411765 219.858824-221.364706 219.858823z m-1.505883-492.423529c-198.776471 0-362.917647-173.176471-362.917647-384 0-9.035294-4.517647-18.070588-12.047058-22.588235-7.529412-4.517647-18.070588-4.517647-25.6 0s-12.047059 13.552941-12.047059 22.588235c0 195.764706 123.482353 361.411765 292.141176 415.623529-84.329412 46.682353-149.082353 138.541176-149.082353 239.435294 0 150.588235 129.505882 272.564706 271.058824 272.564706 143.058824 0 271.058824-121.976471 271.058823-271.058823s-126.494118-269.552941-268.047059-272.564706c-1.505882 1.505882-3.011765 0-4.517647 0z m376.470589-242.447059h-134.02353v-140.047059c0-15.058824-12.047059-28.611765-27.105882-28.611765s-27.105882 12.047059-27.105882 28.611765v140.047059h-134.02353c-15.058824 0-27.105882 12.047059-27.105882 28.611765 0 15.058824 12.047059 28.611765 27.105882 28.611764h134.02353v140.047059c0 15.058824 12.047059 28.611765 27.105882 28.611765s27.105882-12.047059 27.105882-28.611765v-140.047059h134.02353c15.058824 0 27.105882-12.047059 27.105882-28.611764 0-16.564706-12.047059-28.611765-27.105882-28.611765z m0 0"  horiz-adv-x="1024" />

    
    </font>
</defs>
</svg>
